<svg width="478" height="498" viewBox="0 0 478 498" fill="none" xmlns="http://www.w3.org/2000/svg">
<path d="M111.273 351.121C108.727 353.58 101.228 356.186 101.222 356.186C101.142 356.213 101.009 350.722 101.036 350.376C101.395 346.354 104.459 338.796 108.866 337.799C112.044 337.081 114.856 339.481 115.228 342.585C115.62 345.749 113.44 349.02 111.273 351.121Z" fill="black"/>
<path d="M116.73 373.616C113.746 375.251 106.394 375.796 105.809 375.836C106.148 379.944 106.154 384.179 105.935 388.473C105.809 390.926 105.609 393.392 105.37 395.865C105.642 394.755 105.902 393.758 105.948 393.625C107.357 389.842 112.31 383.361 116.823 383.567C120.081 383.713 122.155 386.771 121.696 389.862C121.231 393.02 118.266 395.599 115.62 397.048C112.935 398.517 106.679 399.109 105.018 399.249C104.918 400.199 104.831 401.143 104.725 402.087C104.226 406.627 103.715 411.161 103.342 415.621C103.209 417.19 103.143 418.746 103.063 420.301C103.309 419.311 103.522 418.486 103.568 418.36C104.978 414.578 109.923 408.096 114.444 408.302C117.701 408.449 119.775 411.507 119.316 414.598C118.851 417.755 115.886 420.334 113.24 421.784C110.681 423.186 104.905 423.784 102.937 423.957C102.904 425.553 102.87 427.148 102.917 428.69C102.97 429.747 102.944 430.764 103.057 431.821C103.143 432.872 103.236 433.909 103.322 434.932C103.562 436.907 103.794 438.941 104.08 440.855C104.266 442.191 104.466 443.461 104.672 444.737C104.785 443.169 105.071 440.111 105.117 439.858C105.935 435.903 109.844 428.75 114.344 428.265C117.581 427.919 120.101 430.625 120.114 433.749C120.134 436.94 117.595 439.938 115.201 441.773C112.562 443.787 105.669 445.415 104.805 445.608C105.144 447.722 105.49 449.776 105.855 451.711C106.174 453.446 106.493 455.081 106.812 456.643L104.16 457.633C103.848 455.912 103.528 454.104 103.216 452.169C102.864 450.022 102.531 447.722 102.212 445.356C101.641 445.342 98.4099 445.256 95.4052 444.791C94.109 447.948 89.5754 452.768 88.9904 453.379C90.4396 454.955 91.8621 456.477 93.2315 457.893C94.1688 458.87 95.0795 459.794 95.9637 460.685L93.1518 461.735C92.5402 461.084 91.922 460.425 91.2838 459.734C89.8081 458.139 88.2592 456.404 86.6837 454.609C85.9459 455.074 79.9232 458.823 76.6261 459.269C73.6414 459.674 69.7193 459.355 67.4725 457.088C65.2722 454.868 65.1259 451.179 67.6586 449.125C71.1685 446.28 78.9992 448.56 82.3828 450.767C82.5822 450.9 84.5898 452.555 85.8329 453.618C85.1947 452.881 84.5698 452.169 83.9184 451.405C82.6288 449.896 81.379 448.354 80.0362 446.698C79.4114 445.874 78.7865 445.043 78.155 444.206C77.5102 443.388 76.9319 442.437 76.307 441.553C74.9044 439.466 73.5882 437.279 72.3119 435.045C70.989 436.175 66.2294 440.111 63.3244 440.968C60.4328 441.819 56.5107 442.105 53.9448 440.204C51.4321 438.342 50.7274 434.72 52.9211 432.307C55.9657 428.963 64.049 430.026 67.7251 431.695C67.9511 431.801 70.4572 433.297 71.8133 434.141C71.0555 432.792 70.291 431.456 69.5731 430.066C67.4858 426.058 65.4982 421.936 63.4973 417.835C62.8857 416.579 62.2608 415.335 61.636 414.086C61.1706 414.491 55.6133 419.297 52.3627 420.255C49.4711 421.105 45.549 421.391 42.9831 419.49C40.4703 417.629 39.7657 414.006 41.9594 411.593C45.0039 408.249 53.0873 409.313 56.7634 410.981C57.0426 411.108 60.6388 413.261 61.5296 413.86C60.1602 411.108 58.7709 408.382 57.2952 405.75C55.261 402.114 53.0607 398.657 50.6875 395.473C50.4682 395.666 44.6981 400.698 41.3611 401.682C38.4694 402.532 34.5474 402.812 31.9815 400.917C29.4687 399.056 28.7641 395.433 30.9578 393.02C34.0023 389.676 42.0857 390.74 45.7617 392.408C46.0476 392.541 49.9231 394.861 50.5945 395.333C50.4549 395.147 50.3286 394.934 50.1823 394.748C47.6031 391.378 44.6782 388.433 41.8065 385.814C40.138 384.285 38.4628 382.922 36.8009 381.626C35.8237 382.676 31.2901 387.416 28.3918 388.632C25.6132 389.796 21.7443 390.507 18.9856 388.905C16.2867 387.336 15.1899 383.806 17.1044 381.167C19.7634 377.511 27.9132 377.677 31.7488 378.934C31.9549 379 34.0023 379.931 35.4781 380.629C34.7202 380.057 33.9491 379.452 33.2113 378.921C30.4459 376.913 27.7869 375.244 25.4204 373.782C24.071 372.964 22.8279 372.246 21.6646 371.595C20.1689 372.12 14.1064 374.174 11.0219 373.922C8.01725 373.676 4.25477 372.519 2.54636 369.827C0.871193 367.188 1.5293 363.552 4.4409 362.096C8.48258 360.075 15.6419 363.984 18.4671 366.862C18.7131 367.115 22.0834 371.449 22.0036 371.475C22.0036 371.475 21.9305 371.502 21.9105 371.509C23.0472 372.113 24.2571 372.785 25.56 373.536C27.9597 374.945 30.6653 376.561 33.4838 378.522C36.309 380.469 39.3203 382.663 42.2851 385.262C45.2632 387.861 48.2612 390.753 50.9601 394.13C50.9933 394.17 51.0199 394.21 51.0465 394.25C50.5612 393.02 49.3248 389.523 49.2583 389.244C48.3476 385.309 48.8994 377.172 52.7749 374.852C55.5668 373.177 58.9903 374.586 60.3131 377.412C61.6692 380.303 60.6189 384.092 59.2096 386.758C57.6209 389.769 51.791 394.276 51.3257 394.635C53.8717 397.872 56.2183 401.402 58.3986 405.105C59.6484 407.219 60.8383 409.393 62.0082 411.58C61.6227 410.503 61.2903 409.532 61.2571 409.393C60.3464 405.457 60.8981 397.327 64.7736 395.001C67.5655 393.326 70.989 394.735 72.3119 397.56C73.6679 400.452 72.6176 404.241 71.2084 406.906C69.7792 409.612 64.8866 413.561 63.577 414.591C64.0158 415.435 64.4612 416.273 64.8999 417.124C66.9939 421.185 69.0612 425.247 71.215 429.176C71.9728 430.558 72.7705 431.894 73.5616 433.231C73.2226 432.273 72.9434 431.462 72.9101 431.336C71.9994 427.401 72.5512 419.264 76.4267 416.944C79.2253 415.269 82.6421 416.678 83.9649 419.503C85.321 422.395 84.2707 426.184 82.8614 428.85C81.4987 431.436 77.0116 435.118 75.4628 436.348C76.3137 437.691 77.1712 439.04 78.0553 440.31C78.6802 441.161 79.2253 442.025 79.8967 442.843C80.5481 443.667 81.1929 444.485 81.8311 445.296C83.1207 446.805 84.4369 448.374 85.7332 449.823C86.6239 450.833 87.4947 451.784 88.3656 452.734C87.5944 451.365 86.1453 448.659 86.0456 448.42C85.0485 445.927 84.4236 441.513 85.1282 437.977C84.982 437.611 84.8623 437.232 84.7826 436.84C84.171 433.776 86.0855 430.618 89.3294 430.306C93.8298 429.874 99.1013 436.089 100.703 439.798C100.796 440.018 101.561 442.504 102.013 444.079C101.887 443.109 101.754 442.171 101.634 441.174C101.388 439.207 101.202 437.232 100.996 435.105C100.929 434.075 100.87 433.038 100.803 431.987C100.717 430.95 100.756 429.84 100.723 428.757C100.71 426.244 100.816 423.691 100.983 421.125C99.2542 421.338 93.1185 421.996 90.2202 421.105C87.3352 420.221 83.9117 418.294 82.8215 415.296C81.7513 412.357 83.1672 408.947 86.3248 408.143C90.7055 407.033 96.8611 412.377 99.0082 415.801C99.1412 416.014 100.404 418.639 101.069 420.095C101.182 418.553 101.282 417.011 101.448 415.455C101.92 410.961 102.531 406.428 103.13 401.908C103.309 400.525 103.475 399.142 103.648 397.753C103.037 397.833 95.7509 398.777 92.507 397.779C89.6219 396.895 86.1985 394.968 85.1083 391.97C84.038 389.031 85.4539 385.621 88.6115 384.817C92.9922 383.707 99.1478 389.051 101.295 392.475C101.454 392.734 103.269 396.516 103.681 397.5C104.054 394.456 104.399 391.411 104.625 388.4C104.931 384.245 105.004 380.15 104.785 376.182C104.499 376.222 96.9009 377.239 93.5838 376.215C90.6988 375.331 87.2754 373.403 86.1852 370.405C85.1149 367.467 86.5309 364.057 89.6884 363.252C94.0691 362.142 100.225 367.487 102.372 370.91C102.538 371.176 104.486 375.251 104.785 376.016C104.772 375.783 104.785 375.537 104.765 375.298C104.472 371.063 103.655 366.995 102.711 363.219C102.166 361.025 101.514 358.965 100.843 356.97C99.4469 357.303 93.052 358.765 89.9609 358.174C86.9962 357.609 83.3799 356.066 81.964 353.208C80.5813 350.409 81.6117 346.86 84.6629 345.716C88.8974 344.128 95.6047 348.767 98.1108 351.932C98.2504 352.104 99.4403 354.006 100.291 355.402C99.9721 354.504 99.6597 353.574 99.3406 352.723C98.144 349.519 96.8478 346.66 95.6778 344.141C94.9998 342.712 94.3616 341.435 93.75 340.245C92.2078 339.86 86.019 338.225 83.5927 336.317C81.2261 334.449 78.72 331.418 78.7865 328.227C78.8463 325.102 81.399 322.43 84.6297 322.822C89.1167 323.367 92.9324 330.573 93.6969 334.535C93.7633 334.874 94.1821 340.352 94.1023 340.338C94.1023 340.338 94.0292 340.318 94.0093 340.312C94.6209 341.442 95.259 342.665 95.9371 344.015C97.1602 346.514 98.5229 349.352 99.7993 352.543C101.082 355.727 102.385 359.217 103.422 363.026C104.466 366.835 105.377 370.904 105.769 375.211C105.775 375.258 105.769 375.311 105.775 375.357C106.055 374.061 106.945 370.465 107.045 370.199C108.454 366.417 113.4 359.935 117.92 360.135C121.171 360.281 123.252 363.339 122.793 366.43C122.341 369.587 119.369 372.167 116.73 373.616Z" fill="black"/>
<path d="M36.6618 380.768C36.6087 380.835 33.471 376.328 33.3049 376.022C31.3904 372.472 29.7684 364.475 32.8994 361.212C35.1529 358.858 38.8223 359.31 40.8498 361.69C42.9171 364.117 42.9105 368.052 42.2524 370.997C41.4813 374.46 36.6618 380.768 36.6618 380.768Z" fill="black"/>
<path d="M98.5499 87.4814C98.5499 87.4814 156.563 34.8066 237.31 47.0579C318.057 59.3093 380.597 124.069 432.62 175.149C484.637 226.228 491.989 297.03 452.443 347.059C412.897 397.088 362.622 368.252 291.135 395.4C219.647 422.555 204.544 440.922 130.425 423.692C56.3117 406.461 9.2341 312.831 28.5251 221.169C47.8228 129.507 98.5499 87.4814 98.5499 87.4814Z" fill="white"/>
<path opacity="0.4" d="M98.5499 87.4814C98.5499 87.4814 156.563 34.8066 237.31 47.0579C318.057 59.3093 380.597 124.069 432.62 175.149C484.637 226.228 491.989 297.03 452.443 347.059C412.897 397.088 362.622 368.252 291.135 395.4C219.647 422.555 204.544 440.922 130.425 423.692C56.3117 406.461 9.2341 312.831 28.5251 221.169C47.8228 129.507 98.5499 87.4814 98.5499 87.4814Z" fill="url(#paint0_linear_11039_796)"/>
<path d="M344.036 297.735C343.777 297.762 343.518 297.742 343.252 297.688L166.541 259.725L75.9625 285.244C74.5731 285.637 73.1306 284.826 72.7384 283.436C72.3462 282.047 73.1572 280.604 74.5465 280.212L165.75 254.52C166.162 254.407 166.594 254.393 167.007 254.48L344.349 292.577C345.758 292.882 346.655 294.272 346.356 295.681C346.11 296.831 345.146 297.635 344.036 297.735Z" fill="#BFBFBF" stroke="#233239" stroke-width="1.4328" stroke-miterlimit="10" stroke-linecap="round" stroke-linejoin="round"/>
<path d="M199.965 353.607C199.36 353.66 198.788 353.295 198.602 352.69L161.781 242.72C160.738 239.33 157.786 236.824 154.276 236.332L144.325 234.936C143.614 234.836 143.115 234.178 143.215 233.46C143.315 232.742 143.979 232.25 144.691 232.35L154.642 233.746C159.149 234.377 162.938 237.595 164.281 241.949L201.101 351.918C201.314 352.61 200.928 353.341 200.237 353.554C200.144 353.58 200.051 353.6 199.965 353.607Z" fill="#C8C8C8" stroke="#231815" stroke-width="1.5" stroke-miterlimit="10" stroke-linecap="round" stroke-linejoin="round"/>
<path d="M335.081 322.723C334.942 322.736 334.795 322.723 334.649 322.69L178.2 286.447L88.5188 316.335C87.8474 316.594 87.0896 316.255 86.8303 315.583C86.5711 314.912 86.9101 314.154 87.5815 313.895L177.648 283.862C177.901 283.768 178.174 283.749 178.433 283.815L335.281 320.157C335.979 320.33 336.404 321.041 336.231 321.739C336.098 322.291 335.62 322.676 335.081 322.723Z" fill="#C8C8C8" stroke="#231815" stroke-width="1.5" stroke-miterlimit="10" stroke-linecap="round" stroke-linejoin="round"/>
<path d="M326.559 356.691C326.42 356.704 326.273 356.691 326.127 356.658L189.249 320.582L103.376 356.472C102.705 356.731 101.947 356.392 101.688 355.721C101.429 355.049 101.768 354.291 102.439 354.032L188.697 317.996C188.943 317.903 189.222 317.883 189.481 317.95L326.759 354.125C327.457 354.298 327.889 355.009 327.716 355.707C327.57 356.259 327.098 356.645 326.559 356.691Z" fill="#C8C8C8" stroke="#231815" stroke-width="1.5" stroke-miterlimit="10" stroke-linecap="round" stroke-linejoin="round"/>
<path d="M102.545 277.839L100.025 278.55L134.805 380.11C134.998 380.702 135.57 381.061 136.161 381.008C136.254 381.001 136.354 380.981 136.447 380.948C137.132 380.722 137.511 379.984 137.285 379.299L102.545 277.839Z" fill="#C8C8C8" stroke="#231815" stroke-width="1.5" stroke-miterlimit="10" stroke-linecap="round" stroke-linejoin="round"/>
<path d="M129.966 270.134L127.446 270.846L162.625 367.826C162.818 368.417 163.389 368.783 163.988 368.73C164.081 368.723 164.174 368.703 164.273 368.67C164.958 368.451 165.337 367.713 165.118 367.028L129.966 270.134Z" fill="#C8C8C8" stroke="#231815" stroke-width="1.5" stroke-miterlimit="10" stroke-linecap="round" stroke-linejoin="round"/>
<path d="M153.073 263.6L150.553 264.311L184.821 358.719C185.014 359.31 185.586 359.676 186.184 359.623C186.277 359.616 186.37 359.596 186.47 359.563C187.155 359.344 187.533 358.606 187.314 357.921L153.073 263.6Z" fill="#C8C8C8" stroke="#231815" stroke-width="1.5" stroke-miterlimit="10" stroke-linecap="round" stroke-linejoin="round"/>
<path d="M278.119 283.695L268.088 368.245C267.982 368.956 268.467 369.627 269.185 369.734C269.291 369.754 269.398 369.754 269.504 369.74C270.089 369.687 270.581 369.242 270.674 368.637L280.685 284.247L278.119 283.695Z" fill="#C8C8C8" stroke="#231815" stroke-width="1.5" stroke-miterlimit="10" stroke-linecap="round" stroke-linejoin="round"/>
<path d="M251.834 278.052C251.755 278.198 251.708 278.364 251.688 278.544L247.527 363.12C247.467 363.838 247.999 364.469 248.717 364.536C248.796 364.542 248.876 364.542 248.949 364.536C249.568 364.482 250.073 363.991 250.133 363.346L254.294 278.77C254.301 278.703 254.294 278.643 254.294 278.577L251.834 278.052Z" fill="#C8C8C8" stroke="#231815" stroke-width="1.5" stroke-miterlimit="10" stroke-linecap="round" stroke-linejoin="round"/>
<path d="M309.056 290.343C309.056 290.349 309.049 290.356 309.049 290.356L292.278 374.227C292.125 374.932 292.57 375.63 293.281 375.783C293.414 375.81 293.547 375.816 293.674 375.81C294.225 375.756 294.711 375.358 294.83 374.786L311.602 290.914C311.602 290.908 311.602 290.901 311.602 290.894L309.056 290.343Z" fill="#C8C8C8" stroke="#231815" stroke-width="1.5" stroke-miterlimit="10" stroke-linecap="round" stroke-linejoin="round"/>
<path d="M228.189 272.973C228.143 273.106 228.116 273.239 228.11 273.385L228.475 359.025C228.469 359.749 229.047 360.341 229.765 360.348C229.811 360.348 229.858 360.348 229.898 360.341C230.556 360.281 231.074 359.729 231.081 359.058L230.715 273.525L228.189 272.973Z" fill="#C8C8C8" stroke="#231815" stroke-width="1.5" stroke-miterlimit="10" stroke-linecap="round" stroke-linejoin="round"/>
<path d="M204.604 267.907L209.503 354.371C209.55 355.089 210.168 355.641 210.886 355.594C210.899 355.594 210.913 355.594 210.926 355.594C211.624 355.528 212.156 354.923 212.109 354.212L207.257 268.479L204.604 267.907Z" fill="#C8C8C8" stroke="#231815" stroke-width="1.5" stroke-miterlimit="10" stroke-linecap="round" stroke-linejoin="round"/>
<path d="M316.861 380.742C316.681 380.756 316.502 380.749 316.316 380.702L201.274 354.425L117.954 390.055C117.07 390.434 116.046 390.022 115.667 389.138C115.289 388.254 115.701 387.23 116.585 386.851L200.423 351.001C200.762 350.855 201.134 350.822 201.493 350.902L317.087 377.305C318.024 377.518 318.609 378.455 318.396 379.393C318.23 380.151 317.592 380.676 316.861 380.742Z" fill="#C8C8C8" stroke="#231815" stroke-width="1.5" stroke-miterlimit="10" stroke-linecap="round" stroke-linejoin="round"/>
<path d="M261.553 409.679C261.373 409.692 261.194 409.685 261.015 409.645L136.115 381.959C135.177 381.746 134.586 380.815 134.798 379.878C135.011 378.941 135.942 378.349 136.879 378.562L261.772 406.248C262.71 406.461 263.301 407.392 263.089 408.329C262.922 409.08 262.284 409.612 261.553 409.679Z" fill="#C8C8C8" stroke="#231815" stroke-width="1.5" stroke-miterlimit="10" stroke-linecap="round" stroke-linejoin="round"/>
<path d="M283.456 398.73C283.27 398.75 283.077 398.73 282.885 398.684L163.974 369.428C163.037 369.196 162.472 368.258 162.698 367.321C162.931 366.39 163.875 365.819 164.805 366.045L283.716 395.3C284.646 395.533 285.218 396.47 284.992 397.408C284.806 398.152 284.174 398.671 283.456 398.73Z" fill="#C8C8C8" stroke="#231815" stroke-width="1.5" stroke-miterlimit="10" stroke-linecap="round" stroke-linejoin="round"/>
<path d="M301.65 388.32C301.464 388.34 301.278 388.327 301.085 388.281L185.858 360.64C184.92 360.414 184.349 359.477 184.568 358.54C184.794 357.602 185.731 357.024 186.669 357.25L301.896 384.89C302.834 385.116 303.405 386.054 303.186 386.991C303.007 387.736 302.375 388.254 301.65 388.32Z" fill="#C8C8C8" stroke="#231815" stroke-width="1.5" stroke-miterlimit="10" stroke-linecap="round" stroke-linejoin="round"/>
<path d="M217.627 496.648C213.838 496.648 210.002 494.454 207.609 490.924C205.827 488.299 205.016 485.241 205.322 482.316C205.628 479.358 207.037 476.891 209.291 475.363C210.753 474.372 212.502 473.847 214.35 473.847C218.139 473.847 221.974 476.041 224.367 479.57C228.063 485.021 227.305 492.001 222.692 495.132C221.216 496.123 219.468 496.648 217.627 496.648Z" fill="black"/>
<path d="M214.342 474.345C217.852 474.345 221.555 476.32 223.948 479.849C227.491 485.081 226.8 491.735 222.406 494.713C220.977 495.684 219.328 496.142 217.633 496.142C214.123 496.142 210.42 494.168 208.027 490.638C204.484 485.407 205.176 478.753 209.57 475.774C210.999 474.811 212.647 474.345 214.342 474.345ZM214.342 473.348C212.401 473.348 210.553 473.9 209.004 474.95C204.158 478.234 203.347 485.526 207.196 491.203C209.683 494.866 213.678 497.146 217.626 497.146C219.567 497.146 221.415 496.594 222.964 495.544C225.337 493.935 226.826 491.336 227.145 488.232C227.465 485.194 226.62 482.016 224.772 479.291C222.286 475.628 218.291 473.348 214.342 473.348Z" fill="black"/>
<path d="M216.856 493.563C214.489 493.563 212.096 492.2 210.607 490C209.497 488.364 208.992 486.463 209.184 484.642C209.377 482.787 210.261 481.238 211.677 480.274C212.601 479.65 213.698 479.317 214.855 479.317C217.221 479.317 219.614 480.68 221.103 482.88C222.214 484.515 222.719 486.417 222.526 488.238C222.333 490.093 221.449 491.642 220.033 492.605C219.116 493.23 218.012 493.563 216.856 493.563Z" fill="white"/>
<path d="M214.861 479.816C216.995 479.816 219.242 481.019 220.698 483.16C222.852 486.337 222.433 490.379 219.76 492.194C218.89 492.785 217.886 493.064 216.862 493.064C214.728 493.064 212.481 491.861 211.026 489.721C208.872 486.543 209.291 482.502 211.963 480.687C212.827 480.102 213.831 479.816 214.861 479.816ZM214.861 478.819C213.605 478.819 212.408 479.178 211.398 479.863C208.274 481.976 207.735 486.65 210.195 490.279C211.777 492.612 214.329 494.062 216.855 494.062C218.112 494.062 219.308 493.703 220.319 493.018C221.861 491.974 222.818 490.299 223.031 488.292C223.23 486.35 222.699 484.33 221.522 482.601C219.94 480.268 217.387 478.819 214.861 478.819Z" fill="black"/>
<path d="M215.585 488.777C215.007 488.777 214.435 488.63 213.93 488.351C212.7 487.667 212.022 486.33 212.202 484.934L214.103 470.064L228.628 474.099L218.284 487.454C217.633 488.298 216.649 488.777 215.585 488.777Z" fill="white"/>
<path d="M214.523 470.696L227.778 474.378L217.893 487.148C217.335 487.866 216.497 488.278 215.586 488.278C215.094 488.278 214.609 488.152 214.177 487.913C213.127 487.328 212.548 486.184 212.701 484.994L214.523 470.696ZM213.679 469.426L211.704 484.868C211.498 486.457 212.289 488.012 213.692 488.784C214.29 489.116 214.942 489.275 215.586 489.275C216.763 489.275 217.92 488.744 218.684 487.76L229.48 473.82L213.679 469.426Z" fill="black"/>
<path d="M273.904 465.603C270.115 465.603 266.279 463.41 263.886 459.88C262.105 457.254 261.294 454.196 261.6 451.271C261.905 448.313 263.315 445.847 265.568 444.318C267.031 443.328 268.779 442.802 270.62 442.802C274.409 442.802 278.245 444.996 280.638 448.526C284.327 453.977 283.576 460.957 278.963 464.088C277.494 465.078 275.745 465.603 273.904 465.603Z" fill="black"/>
<path d="M270.62 443.301C274.13 443.301 277.833 445.275 280.226 448.805C283.769 454.037 283.078 460.691 278.684 463.669C277.255 464.64 275.599 465.098 273.911 465.098C270.401 465.098 266.698 463.124 264.305 459.594C260.762 454.363 261.454 447.708 265.848 444.73C267.277 443.766 268.925 443.301 270.62 443.301ZM270.62 442.304C268.679 442.304 266.831 442.856 265.282 443.906C262.909 445.515 261.42 448.114 261.101 451.218C260.782 454.256 261.626 457.434 263.474 460.159C265.961 463.822 269.956 466.102 273.904 466.102C275.845 466.102 277.693 465.55 279.242 464.5C284.088 461.216 284.899 453.924 281.05 448.247C278.564 444.584 274.569 442.304 270.62 442.304Z" fill="black"/>
<path d="M273.134 462.519C270.767 462.519 268.374 461.157 266.885 458.956C265.775 457.321 265.27 455.42 265.462 453.598C265.655 451.744 266.539 450.195 267.955 449.231C268.879 448.606 269.976 448.274 271.139 448.274C273.506 448.274 275.899 449.636 277.388 451.837C279.695 455.234 279.209 459.601 276.318 461.562C275.394 462.187 274.29 462.519 273.134 462.519Z" fill="white"/>
<path d="M271.14 448.772C273.273 448.772 275.52 449.975 276.976 452.116C279.13 455.293 278.711 459.335 276.039 461.15C275.168 461.741 274.164 462.021 273.14 462.021C271.007 462.021 268.76 460.817 267.304 458.677C265.15 455.499 265.569 451.458 268.241 449.643C269.105 449.058 270.109 448.779 271.14 448.772ZM271.14 447.775C269.883 447.775 268.687 448.134 267.676 448.819C264.552 450.932 264.013 455.606 266.473 459.235C268.055 461.568 270.608 463.018 273.134 463.018C274.39 463.018 275.587 462.659 276.597 461.974C279.721 459.86 280.26 455.187 277.8 451.557C276.218 449.224 273.666 447.775 271.14 447.775Z" fill="black"/>
<path d="M271.864 457.74C271.286 457.74 270.721 457.594 270.209 457.314C268.979 456.63 268.301 455.294 268.48 453.898L270.382 439.027L284.906 443.062L274.57 456.417C273.911 457.255 272.928 457.74 271.864 457.74Z" fill="white"/>
<path d="M270.8 439.659L284.055 443.341L274.17 456.111C273.612 456.829 272.774 457.241 271.863 457.241C271.371 457.241 270.886 457.115 270.454 456.876C269.404 456.291 268.825 455.147 268.978 453.957L270.8 439.659ZM269.955 438.389L267.981 453.831C267.775 455.42 268.566 456.975 269.969 457.746C270.567 458.079 271.218 458.238 271.863 458.238C273.04 458.238 274.197 457.707 274.961 456.723L285.757 442.783L269.955 438.389Z" fill="black"/>
<path d="M194.034 447.888C190.245 447.888 186.409 445.694 184.016 442.165C180.32 436.714 181.078 429.734 185.692 426.603C187.154 425.612 188.902 425.087 190.744 425.087C194.533 425.087 198.368 427.281 200.761 430.811C204.457 436.262 203.7 443.241 199.086 446.372C197.624 447.363 195.876 447.888 194.034 447.888Z" fill="black"/>
<path d="M190.744 425.586C194.254 425.586 197.957 427.56 200.35 431.09C203.893 436.321 203.202 442.976 198.808 445.954C197.379 446.924 195.73 447.383 194.035 447.383C190.525 447.383 186.822 445.409 184.429 441.879C180.886 436.647 181.578 429.993 185.972 427.015C187.401 426.051 189.056 425.586 190.744 425.586ZM190.751 424.589C188.81 424.589 186.962 425.14 185.413 426.191C180.567 429.475 179.756 436.767 183.605 442.444C186.091 446.107 190.086 448.387 194.035 448.387C195.976 448.387 197.824 447.835 199.373 446.785C204.219 443.501 205.03 436.208 201.181 430.531C198.695 426.869 194.7 424.589 190.751 424.589Z" fill="black"/>
<path d="M193.263 444.803C190.896 444.803 188.503 443.441 187.014 441.24C185.904 439.605 185.399 437.704 185.592 435.883C185.784 434.028 186.669 432.479 188.085 431.515C189.009 430.89 190.105 430.558 191.269 430.558C193.635 430.558 196.028 431.921 197.517 434.121C198.627 435.756 199.133 437.657 198.94 439.479C198.747 441.333 197.863 442.882 196.447 443.846C195.523 444.471 194.42 444.803 193.263 444.803Z" fill="white"/>
<path d="M191.269 431.063C193.403 431.063 195.65 432.266 197.105 434.407C199.259 437.584 198.84 441.626 196.168 443.441C195.297 444.033 194.294 444.312 193.27 444.312C191.136 444.312 188.889 443.109 187.433 440.968C185.28 437.791 185.698 433.749 188.371 431.934C189.235 431.342 190.239 431.063 191.269 431.063ZM191.269 430.066C190.013 430.066 188.816 430.425 187.806 431.11C184.681 433.224 184.143 437.897 186.602 441.526C188.185 443.86 190.737 445.309 193.263 445.309C194.52 445.309 195.716 444.95 196.727 444.265C198.269 443.222 199.226 441.546 199.439 439.539C199.638 437.598 199.106 435.577 197.93 433.849C196.348 431.509 193.795 430.066 191.269 430.066Z" fill="black"/>
<path d="M191.994 440.024C191.416 440.024 190.844 439.878 190.339 439.599C189.109 438.914 188.431 437.578 188.611 436.182L190.512 421.311L205.037 425.346L194.7 438.701C194.042 439.539 193.058 440.024 191.994 440.024Z" fill="white"/>
<path d="M190.931 421.943L204.186 425.626L194.301 438.396C193.743 439.114 192.905 439.526 191.994 439.526C191.502 439.526 191.017 439.4 190.585 439.16C189.535 438.575 188.956 437.432 189.109 436.242L190.931 421.943ZM190.087 420.674L188.112 436.116C187.906 437.704 188.697 439.26 190.1 440.031C190.698 440.363 191.35 440.523 191.994 440.523C193.171 440.523 194.328 439.991 195.092 439.007L205.888 425.068L190.087 420.674Z" fill="black"/>
<path d="M134.732 475.575C130.943 475.575 127.107 473.381 124.714 469.851C121.018 464.4 121.776 457.421 126.39 454.29C127.852 453.299 129.6 452.774 131.442 452.774C135.231 452.774 139.066 454.968 141.459 458.497C143.241 461.123 144.052 464.181 143.746 467.106C143.44 470.064 142.031 472.53 139.778 474.059C138.322 475.05 136.573 475.575 134.732 475.575Z" fill="black"/>
<path d="M131.448 453.273C134.958 453.273 138.661 455.247 141.054 458.777C144.597 464.008 143.906 470.663 139.512 473.641C138.083 474.611 136.427 475.07 134.739 475.07C131.229 475.07 127.526 473.096 125.133 469.566C121.59 464.334 122.281 457.68 126.675 454.702C128.105 453.738 129.753 453.273 131.448 453.273ZM131.448 452.276C129.507 452.276 127.659 452.827 126.11 453.878C121.264 457.162 120.453 464.454 124.302 470.131C126.788 473.794 130.784 476.074 134.732 476.074C136.673 476.074 138.521 475.522 140.07 474.472C144.916 471.188 145.727 463.895 141.878 458.218C139.392 454.556 135.397 452.276 131.448 452.276Z" fill="black"/>
<path d="M133.967 472.491C131.601 472.491 129.208 471.128 127.719 468.928C126.608 467.292 126.103 465.391 126.296 463.57C126.489 461.715 127.373 460.166 128.789 459.202C129.713 458.577 130.81 458.245 131.966 458.245C134.333 458.245 136.726 459.608 138.215 461.808C139.325 463.443 139.83 465.345 139.638 467.166C139.445 469.021 138.561 470.57 137.145 471.533C136.221 472.158 135.124 472.491 133.967 472.491Z" fill="white"/>
<path d="M131.966 458.743C134.1 458.743 136.347 459.947 137.803 462.087C139.957 465.265 139.538 469.306 136.866 471.121C135.995 471.713 134.991 471.992 133.967 471.992C131.834 471.992 129.587 470.789 128.131 468.648C125.977 465.471 126.396 461.429 129.068 459.614C129.939 459.023 130.936 458.743 131.966 458.743ZM131.966 457.746C130.71 457.746 129.514 458.105 128.503 458.79C125.379 460.904 124.84 465.577 127.3 469.207C128.882 471.54 131.435 472.989 133.961 472.989C135.217 472.989 136.414 472.63 137.424 471.945C140.548 469.832 141.087 465.158 138.627 461.529C137.045 459.195 134.499 457.746 131.966 457.746Z" fill="black"/>
<path d="M132.691 467.704C132.113 467.704 131.541 467.558 131.036 467.279C129.806 466.594 129.128 465.258 129.307 463.862L131.209 448.991L145.733 453.026L135.396 466.381C134.745 467.226 133.755 467.704 132.691 467.704Z" fill="white"/>
<path d="M131.635 449.623L144.89 453.306L135.005 466.076C134.447 466.794 133.609 467.206 132.698 467.206C132.207 467.206 131.721 467.08 131.289 466.84C130.239 466.255 129.661 465.112 129.813 463.922L131.635 449.623ZM130.791 448.354L128.816 463.796C128.61 465.385 129.401 466.94 130.804 467.711C131.402 468.044 132.054 468.203 132.698 468.203C133.875 468.203 135.032 467.671 135.796 466.688L146.592 452.748L130.791 448.354Z" fill="black"/>
<path d="M237.329 477.031C235.854 477.031 234.371 476.851 232.922 476.492L123.637 449.47C120.473 448.686 117.794 446.579 116.292 443.687C114.623 440.476 114.597 436.634 116.212 433.397L135.895 393.339C136.427 392.275 137.491 391.611 138.68 391.611C138.9 391.611 139.119 391.637 139.339 391.684L215.074 408.143C216.749 408.502 217.819 410.164 217.46 411.839C217.154 413.261 215.878 414.292 214.422 414.292C214.203 414.292 213.977 414.265 213.764 414.219L180.613 407.073L180.507 407.731C180.168 409.865 180.892 412.045 182.434 413.554C183.325 414.425 184.442 415.023 185.652 415.296L291.128 438.695C293.108 439.134 294.591 440.716 294.897 442.717C295.209 444.717 294.278 446.672 292.53 447.689L246.503 474.531C244.077 475.947 241.437 476.772 238.665 476.971C238.227 477.018 237.775 477.031 237.329 477.031ZM121.783 436.175C121.051 437.638 121.065 439.373 121.822 440.822C122.5 442.125 123.71 443.082 125.139 443.434L234.424 470.457C235.382 470.696 236.359 470.816 237.329 470.816C239.443 470.816 241.531 470.244 243.379 469.174L286.468 444.046L184.316 421.378C181.962 420.853 179.815 419.69 178.093 418.008C175.022 415.01 173.513 410.629 174.152 406.587C174.152 406.587 174.311 405.59 174.311 405.584L140.794 397.813L121.783 436.175Z" fill="white"/>
<path d="M138.681 392.116C138.867 392.116 139.046 392.136 139.233 392.176L214.967 408.635C216.377 408.941 217.274 410.33 216.968 411.739C216.702 412.963 215.626 413.8 214.416 413.8C214.236 413.8 214.05 413.78 213.864 413.74L180.194 406.481C180.188 406.548 180.181 406.614 180.168 406.687L180.015 407.665C179.649 409.958 180.427 412.298 182.089 413.92C183.046 414.857 184.243 415.502 185.552 415.794L291.028 439.194C292.803 439.586 294.133 441.008 294.418 442.803C294.698 444.598 293.867 446.353 292.291 447.27L246.264 474.113C243.904 475.489 241.298 476.293 238.639 476.486C238.207 476.519 237.768 476.533 237.336 476.533C235.907 476.533 234.471 476.36 233.049 476.007L123.764 448.985C120.739 448.241 118.18 446.22 116.744 443.455C115.149 440.39 115.122 436.707 116.664 433.616L136.348 393.552C136.793 392.661 137.71 392.116 138.681 392.116ZM237.33 471.308C239.523 471.308 241.69 470.729 243.625 469.593L287.811 443.82L184.422 420.886C182.162 420.388 180.095 419.264 178.439 417.649C175.568 414.844 174.012 410.623 174.644 406.661L174.797 405.684C174.823 405.517 174.863 405.358 174.916 405.205L140.522 397.235L121.337 435.95C120.54 437.552 120.553 439.459 121.377 441.048C122.122 442.484 123.445 443.528 125.014 443.913L234.298 470.935C235.302 471.188 236.319 471.308 237.33 471.308ZM138.681 391.119C137.305 391.119 136.068 391.883 135.45 393.12L115.76 433.191C114.078 436.561 114.112 440.576 115.847 443.927C117.415 446.951 120.207 449.152 123.511 449.963L232.796 476.985C234.278 477.35 235.801 477.536 237.323 477.536C237.782 477.536 238.247 477.516 238.699 477.483C241.551 477.27 244.256 476.426 246.749 474.977L292.776 448.134C294.704 447.011 295.728 444.857 295.389 442.65C295.043 440.443 293.415 438.702 291.234 438.216L185.758 414.817C184.635 414.571 183.605 414.013 182.78 413.202C181.351 411.806 180.68 409.792 180.992 407.811L181.012 407.671L213.645 414.704C213.897 414.757 214.156 414.784 214.409 414.784C216.098 414.784 217.58 413.587 217.932 411.932C218.351 409.984 217.108 408.063 215.167 407.645L139.445 391.199C139.193 391.145 138.94 391.119 138.681 391.119ZM237.33 470.311C236.399 470.311 235.462 470.197 234.544 469.971L125.259 442.949C123.97 442.63 122.88 441.773 122.268 440.596C121.59 439.287 121.577 437.724 122.235 436.402L141.074 398.385L173.753 405.956L173.667 406.501C173.002 410.702 174.564 415.249 177.748 418.36C179.536 420.109 181.77 421.318 184.21 421.857L285.112 444.239L243.126 468.728C241.358 469.765 239.35 470.311 237.33 470.311Z" fill="black"/>
<path d="M180.021 407.658L180.201 406.481L174.923 405.211L174.305 406.581C174.025 408.349 174.265 410.423 174.73 412.105L182.056 413.88C180.42 412.258 179.656 409.938 180.021 407.658Z" fill="black"/>
<path d="M53.4998 264.424C50.7544 264.424 48.3879 262.45 47.7431 259.618C46.9786 256.288 48.9131 252.944 52.0507 252.166L139.405 230.515C139.844 230.409 140.296 230.349 140.742 230.349C143.487 230.349 145.854 232.323 146.505 235.155C147.269 238.486 145.335 241.829 142.197 242.607L54.8426 264.251C54.5701 264.318 54.2842 264.364 54.005 264.391C53.8322 264.418 53.666 264.424 53.4998 264.424Z" fill="black"/>
<path d="M140.741 230.854C143.181 230.854 145.415 232.636 146.019 235.275C146.724 238.346 144.956 241.417 142.078 242.128L54.7227 263.779C54.4701 263.839 54.2109 263.886 53.9582 263.906C53.8054 263.919 53.6525 263.926 53.4996 263.926C51.0599 263.926 48.833 262.144 48.2281 259.505C47.5235 256.434 49.2917 253.363 52.1701 252.651L139.525 231.001C139.93 230.901 140.336 230.854 140.741 230.854ZM140.741 229.857C140.249 229.857 139.764 229.917 139.286 230.037L51.9308 251.688C48.5272 252.532 46.4333 256.141 47.2576 259.738C47.9556 262.796 50.5281 264.929 53.5062 264.929C53.6857 264.929 53.8718 264.923 54.0513 264.903C54.3571 264.876 54.6629 264.823 54.962 264.75L142.317 243.099C145.72 242.255 147.814 238.645 146.99 235.049C146.285 231.991 143.719 229.857 140.741 229.857Z" fill="black"/>
<path d="M79.5783 286.228C78.8138 286.228 78.1291 285.743 77.8765 285.018L72.0135 268.207C70.9233 265.089 68.2111 262.882 64.9339 262.457L50.9409 260.629C49.9571 260.502 49.2591 259.592 49.3854 258.608C49.505 257.71 50.2761 257.039 51.1802 257.039C51.2533 257.039 51.3331 257.046 51.4129 257.052L65.4125 258.88C70.0524 259.485 73.888 262.603 75.4303 267.024L81.2934 283.835C81.4529 284.287 81.4263 284.779 81.2136 285.211C81.0075 285.643 80.6353 285.976 80.1832 286.129C80.0436 286.175 79.904 286.208 79.7511 286.222C79.6847 286.228 79.6315 286.228 79.5783 286.228Z" fill="white"/>
<path d="M51.1665 257.538C51.2197 257.538 51.2796 257.544 51.3327 257.551L65.3257 259.379C69.7795 259.957 73.4623 262.955 74.938 267.19L80.8011 284.001C81.0404 284.679 80.6814 285.431 79.9967 285.663C79.8904 285.696 79.7907 285.723 79.6843 285.73C79.6444 285.736 79.6045 285.736 79.5647 285.736C79.0262 285.736 78.521 285.397 78.3282 284.859L72.4651 268.047C71.3151 264.75 68.4434 262.417 64.98 261.965L50.9871 260.137C50.2691 260.044 49.7706 259.386 49.8636 258.674C49.9567 258.016 50.5217 257.538 51.1665 257.538ZM51.1665 256.541C50.0099 256.541 49.0327 257.405 48.8798 258.548C48.7136 259.811 49.6044 260.968 50.8674 261.134L64.8604 262.962C67.9515 263.368 70.5041 265.442 71.5345 268.386L77.3976 285.198C77.7233 286.122 78.5941 286.74 79.5713 286.74C79.6378 286.74 79.7109 286.74 79.7774 286.733C79.9635 286.714 80.1496 286.674 80.3291 286.614C80.9075 286.414 81.3728 285.996 81.6453 285.444C81.9112 284.892 81.9511 284.267 81.745 283.682L75.8819 266.871C74.2799 262.277 70.2848 259.027 65.4587 258.402L51.4657 256.574C51.3593 256.547 51.2663 256.541 51.1665 256.541Z" fill="black"/>
<path d="M245.021 418.952C244.895 418.952 244.769 418.939 244.649 418.912L115.9 391.338C115.289 391.205 114.777 390.76 114.577 390.168L77.8765 285.012C77.7169 284.56 77.7435 284.068 77.9563 283.629C78.169 283.19 78.5346 282.871 78.9866 282.712C79.1794 282.645 79.3788 282.612 79.5849 282.612C80.3494 282.612 81.0341 283.097 81.2867 283.822L117.655 388.021L244.782 415.243L316.296 378.655L342.081 294.597C342.314 293.833 343.005 293.321 343.803 293.321C343.982 293.321 344.162 293.348 344.335 293.401C345.285 293.693 345.824 294.704 345.531 295.654L319.52 380.443C319.373 380.908 319.048 381.3 318.616 381.52L245.852 418.752C245.646 418.859 245.427 418.919 245.194 418.945C245.134 418.952 245.074 418.952 245.021 418.952Z" fill="white"/>
<path d="M79.578 283.117C80.1164 283.117 80.6216 283.456 80.8078 283.994L117.269 388.46L244.841 415.781L316.701 379.014L342.546 294.757C342.719 294.192 343.231 293.833 343.789 293.833C343.916 293.833 344.049 293.853 344.175 293.893C344.866 294.105 345.252 294.837 345.039 295.528L319.028 380.317C318.921 380.656 318.689 380.935 318.376 381.094L245.613 418.32C245.46 418.4 245.3 418.447 245.134 418.46C245.094 418.467 245.054 418.467 245.014 418.467C244.921 418.467 244.828 418.46 244.742 418.44L116 390.866C115.554 390.773 115.189 390.447 115.042 390.022L78.3415 284.865C78.1022 284.187 78.4612 283.436 79.1459 283.203C79.2855 283.137 79.4317 283.117 79.578 283.117ZM79.578 282.12C79.3187 282.12 79.0595 282.166 78.8135 282.253C78.2352 282.452 77.7698 282.871 77.4973 283.423C77.2314 283.974 77.1915 284.599 77.3976 285.184L114.098 390.341C114.364 391.092 115.009 391.664 115.787 391.837L244.536 419.411C244.695 419.444 244.855 419.464 245.021 419.464C245.087 419.464 245.161 419.464 245.227 419.457C245.519 419.431 245.805 419.351 246.071 419.211L318.835 381.985C319.386 381.706 319.805 381.201 319.985 380.609L345.996 295.82C346.369 294.604 345.684 293.314 344.468 292.942C344.248 292.875 344.016 292.842 343.789 292.842C342.772 292.842 341.888 293.494 341.589 294.471L315.863 378.329L244.695 414.744L118.02 387.616L81.7451 283.682C81.426 282.738 80.5552 282.12 79.578 282.12Z" fill="black"/>
<path d="M244.928 418.952C244.443 418.926 244.004 418.713 243.679 418.354C243.36 417.995 243.193 417.53 243.22 417.051L247.813 330.042C247.867 329.085 248.651 328.333 249.615 328.333H249.715C250.193 328.36 250.639 328.573 250.958 328.925C251.283 329.284 251.443 329.749 251.416 330.228L246.823 417.237C246.776 418.128 246.072 418.859 245.188 418.939C245.135 418.946 245.075 418.945 245.022 418.945L244.928 418.952Z" fill="white"/>
<path d="M249.615 328.832C249.641 328.832 249.661 328.832 249.688 328.832C250.406 328.871 250.964 329.483 250.924 330.208L246.331 417.217C246.298 417.875 245.786 418.393 245.148 418.446C245.108 418.453 245.068 418.453 245.028 418.453C245.008 418.453 244.981 418.453 244.961 418.453C244.243 418.413 243.685 417.802 243.725 417.077L248.318 330.068C248.352 329.377 248.917 328.832 249.615 328.832ZM249.615 327.834C248.392 327.834 247.381 328.792 247.321 330.015L242.728 417.024C242.695 417.636 242.901 418.227 243.313 418.686C243.725 419.144 244.29 419.41 244.902 419.444C244.941 419.444 244.981 419.45 245.021 419.45C245.094 419.45 245.161 419.444 245.234 419.444C246.364 419.344 247.261 418.407 247.321 417.27L251.915 330.261C251.948 329.649 251.742 329.058 251.33 328.599C250.918 328.14 250.352 327.874 249.741 327.841C249.694 327.841 249.655 327.834 249.615 327.834Z" fill="black"/>
<path d="M263.614 409.267C263.541 409.267 263.468 409.26 263.388 409.254C262.916 409.194 262.484 408.955 262.192 408.576C261.893 408.197 261.766 407.725 261.826 407.246L272.223 322.836C272.336 321.932 273.107 321.254 274.011 321.254C274.084 321.254 274.157 321.261 274.23 321.267C274.709 321.327 275.135 321.567 275.434 321.945C275.733 322.324 275.859 322.796 275.799 323.275L265.403 407.685C265.296 408.522 264.618 409.187 263.774 409.26C263.721 409.26 263.668 409.267 263.614 409.267Z" fill="white"/>
<path d="M274.011 321.746C274.064 321.746 274.118 321.746 274.171 321.753C274.889 321.839 275.394 322.49 275.308 323.208L264.911 407.618C264.831 408.243 264.333 408.702 263.734 408.762C263.694 408.768 263.655 408.768 263.615 408.768C263.561 408.768 263.508 408.768 263.455 408.762C262.737 408.675 262.232 408.024 262.318 407.306L272.715 322.896C272.795 322.231 273.366 321.746 274.011 321.746ZM274.011 320.749C272.848 320.749 271.871 321.62 271.725 322.77L261.328 407.18C261.255 407.791 261.421 408.396 261.8 408.881C262.179 409.367 262.724 409.672 263.335 409.752C263.428 409.765 263.522 409.772 263.615 409.772C263.688 409.772 263.754 409.772 263.827 409.765C264.898 409.666 265.775 408.821 265.901 407.751L276.298 323.341C276.371 322.73 276.205 322.125 275.826 321.64C275.447 321.154 274.902 320.848 274.291 320.769C274.197 320.755 274.104 320.749 274.011 320.749Z" fill="black"/>
<path d="M284.587 399.009C284.494 399.009 284.401 399.003 284.302 398.99C283.83 398.916 283.411 398.657 283.125 398.272C282.839 397.886 282.726 397.407 282.799 396.929L295.828 314.719C295.968 313.835 296.719 313.197 297.61 313.197C297.703 313.197 297.796 313.204 297.889 313.217C298.368 313.29 298.786 313.549 299.066 313.942C299.351 314.334 299.464 314.806 299.391 315.284L286.362 397.494C286.236 398.312 285.565 398.936 284.747 399.009C284.7 399.003 284.641 399.009 284.587 399.009Z" fill="white"/>
<path d="M297.616 313.682C297.682 313.682 297.748 313.689 297.822 313.695C298.533 313.808 299.018 314.48 298.905 315.191L285.876 397.401C285.783 398.006 285.284 398.444 284.706 398.498C284.666 398.504 284.626 398.504 284.586 398.504C284.52 398.504 284.454 398.498 284.38 398.491C283.669 398.378 283.184 397.707 283.297 396.995L296.326 314.786C296.432 314.141 296.991 313.682 297.616 313.682ZM297.616 312.685C296.479 312.685 295.522 313.503 295.342 314.626L282.313 396.842C282.22 397.447 282.366 398.059 282.725 398.557C283.084 399.056 283.623 399.382 284.227 399.481C284.347 399.501 284.467 399.508 284.586 399.508C284.66 399.508 284.726 399.508 284.799 399.501C285.849 399.408 286.7 398.611 286.867 397.567L299.896 315.357C300.095 314.101 299.238 312.918 297.981 312.725C297.855 312.698 297.735 312.685 297.616 312.685Z" fill="black"/>
<path d="M302.767 388.659C302.641 388.659 302.515 388.646 302.395 388.619C301.923 388.519 301.518 388.247 301.252 387.841C300.986 387.436 300.899 386.957 300.992 386.485L318.196 304.242C318.369 303.412 319.114 302.807 319.964 302.807C320.091 302.807 320.21 302.82 320.337 302.847C321.307 303.053 321.939 304.01 321.733 304.98L304.529 387.223C304.363 388.008 303.718 388.579 302.927 388.652C302.88 388.652 302.827 388.659 302.767 388.659Z" fill="white"/>
<path d="M319.972 303.298C320.058 303.298 320.151 303.305 320.237 303.325C320.942 303.471 321.394 304.163 321.248 304.874L304.051 387.117C303.931 387.695 303.446 388.1 302.894 388.154C302.854 388.16 302.814 388.16 302.774 388.16C302.688 388.16 302.595 388.154 302.509 388.134C301.804 387.987 301.352 387.296 301.498 386.585L318.695 304.342C318.822 303.724 319.367 303.298 319.972 303.298ZM319.972 302.301C318.888 302.301 317.937 303.072 317.718 304.136L300.514 386.379C300.388 386.984 300.508 387.595 300.84 388.114C301.179 388.626 301.698 388.985 302.296 389.104C302.449 389.137 302.608 389.151 302.768 389.151C302.841 389.151 302.907 389.151 302.981 389.144C303.998 389.051 304.815 388.32 305.028 387.323L322.232 305.08C322.491 303.837 321.693 302.614 320.45 302.354C320.284 302.321 320.131 302.301 319.972 302.301Z" fill="black"/>
<path d="M222.539 412.657C221.561 412.657 220.77 411.892 220.737 410.915L217.586 322.876C217.566 322.384 217.752 321.905 218.078 321.553C218.404 321.207 218.849 321.014 219.334 321.008C220.365 321.008 221.156 321.772 221.189 322.749L224.34 410.796C224.373 411.753 223.655 412.57 222.698 412.657C222.705 412.65 222.545 412.657 222.539 412.657Z" fill="white"/>
<path d="M219.388 321.5C220.086 321.5 220.665 322.051 220.691 322.756L223.842 410.795C223.869 411.493 223.343 412.078 222.659 412.145C222.632 412.145 222.612 412.151 222.586 412.151C222.572 412.151 222.552 412.151 222.539 412.151C221.841 412.151 221.263 411.6 221.236 410.888L218.085 322.849C218.059 322.131 218.597 321.506 219.342 321.5C219.362 321.506 219.375 321.5 219.388 321.5ZM219.388 320.502H219.302C218.704 320.509 218.132 320.762 217.713 321.2C217.288 321.646 217.062 322.257 217.082 322.882L220.232 410.922C220.279 412.165 221.289 413.142 222.532 413.142H222.612L222.739 413.135C223.955 413.022 224.879 411.979 224.833 410.762L221.682 322.723C221.648 321.48 220.638 320.502 219.388 320.502Z" fill="black"/>
<path d="M202.031 408.96C201.107 408.96 200.343 408.269 200.236 407.352L190.126 315.423C190.072 314.945 190.212 314.473 190.511 314.094C190.81 313.715 191.242 313.482 191.721 313.429C191.781 313.416 191.867 313.409 191.947 313.409C192.838 313.409 193.609 314.12 193.709 315.025L203.819 406.953C203.873 407.431 203.733 407.903 203.434 408.282C203.135 408.661 202.703 408.894 202.224 408.947C202.138 408.96 202.084 408.96 202.031 408.96Z" fill="white"/>
<path d="M191.954 313.915C192.572 313.915 193.151 314.427 193.224 315.085L203.335 407.013C203.415 407.731 202.896 408.376 202.178 408.456C202.171 408.456 202.165 408.456 202.152 408.456C202.112 408.462 202.072 408.462 202.032 408.462C201.374 408.462 200.809 407.97 200.736 407.299L190.625 315.371C190.545 314.653 191.064 314.008 191.781 313.928C191.841 313.922 191.894 313.915 191.954 313.915ZM191.954 312.918C191.855 312.918 191.748 312.924 191.648 312.938C191.044 313.011 190.505 313.31 190.126 313.782C189.741 314.261 189.568 314.865 189.634 315.477L199.745 407.405C199.871 408.575 200.855 409.459 202.032 409.459C202.098 409.459 202.171 409.459 202.245 409.453C202.251 409.453 202.278 409.453 202.278 409.453C202.896 409.386 203.448 409.08 203.833 408.602C204.219 408.123 204.392 407.518 204.325 406.907L194.214 314.978C194.088 313.822 193.091 312.918 191.954 312.918Z" fill="black"/>
<path d="M181.397 403.882C180.5 403.882 179.735 403.211 179.609 402.327L166.58 308.923C166.44 307.939 167.132 307.022 168.116 306.889C168.202 306.875 168.295 306.869 168.388 306.869C169.272 306.869 170.03 307.54 170.156 308.424L183.185 401.828C183.325 402.812 182.634 403.729 181.65 403.862C181.643 403.862 181.57 403.869 181.563 403.869C181.51 403.882 181.45 403.882 181.397 403.882Z" fill="white"/>
<path d="M168.395 307.367C169.033 307.367 169.578 307.852 169.665 308.497L182.694 401.901C182.793 402.612 182.295 403.277 181.584 403.377C181.564 403.377 181.544 403.383 181.524 403.383C181.484 403.39 181.444 403.39 181.404 403.39C180.759 403.39 180.201 402.918 180.115 402.267L167.085 308.863C166.986 308.145 167.484 307.487 168.196 307.387C168.262 307.374 168.328 307.367 168.395 307.367ZM168.395 306.37C168.275 306.37 168.156 306.377 168.036 306.396C166.8 306.569 165.915 307.733 166.095 308.996L179.124 402.4C179.284 403.53 180.261 404.387 181.404 404.387C181.471 404.387 181.544 404.387 181.61 404.381C181.643 404.381 181.677 404.374 181.71 404.367C182.328 404.281 182.867 403.962 183.239 403.476C183.611 402.985 183.764 402.38 183.684 401.768L170.655 308.364C170.496 307.227 169.525 306.37 168.395 306.37Z" fill="black"/>
<path d="M162.965 400C162.094 400 161.349 399.381 161.19 398.524L143.461 303.112C143.281 302.135 143.926 301.191 144.903 301.005C145.016 300.985 145.123 300.972 145.236 300.972C146.107 300.972 146.851 301.59 147.011 302.448L164.74 397.853C164.826 398.324 164.726 398.81 164.454 399.202C164.181 399.594 163.769 399.867 163.297 399.953C163.244 399.966 163.184 399.973 163.124 399.98C163.071 399.993 163.018 400 162.965 400Z" fill="white"/>
<path d="M145.235 301.477C145.847 301.477 146.399 301.916 146.518 302.547L164.247 397.952C164.38 398.663 163.908 399.342 163.204 399.474C163.164 399.481 163.124 399.488 163.084 399.494C163.044 399.501 163.004 399.501 162.964 399.501C162.346 399.501 161.801 399.062 161.681 398.431L143.952 303.026C143.819 302.315 144.291 301.637 144.996 301.504C145.076 301.484 145.156 301.477 145.235 301.477ZM145.235 300.48C145.089 300.48 144.949 300.493 144.81 300.52C143.567 300.753 142.736 301.956 142.969 303.205L160.697 398.617C160.903 399.707 161.854 400.498 162.958 400.498C163.024 400.498 163.097 400.498 163.164 400.492C163.237 400.485 163.31 400.472 163.39 400.458C163.981 400.345 164.506 400.006 164.859 399.501C165.204 398.996 165.337 398.384 165.224 397.779L147.495 302.375C147.296 301.271 146.345 300.48 145.235 300.48Z" fill="black"/>
<path d="M146 397.022C145.175 397.022 144.457 396.464 144.251 395.666L118.838 296.086C118.592 295.123 119.177 294.139 120.141 293.893C120.287 293.853 120.44 293.833 120.593 293.833C121.417 293.833 122.135 294.391 122.334 295.196L147.748 394.775C147.994 395.739 147.409 396.723 146.445 396.969C146.352 396.995 146.252 397.009 146.159 397.015C146.106 397.022 146.053 397.022 146 397.022Z" fill="white"/>
<path d="M120.593 294.331C121.171 294.331 121.703 294.724 121.856 295.315L147.27 394.895C147.449 395.593 147.024 396.304 146.326 396.483C146.259 396.503 146.186 396.51 146.12 396.517C146.08 396.523 146.04 396.523 146 396.523C145.415 396.523 144.883 396.131 144.737 395.539L119.323 295.96C119.144 295.262 119.569 294.551 120.267 294.371C120.374 294.345 120.487 294.331 120.593 294.331ZM120.593 293.334C120.4 293.334 120.201 293.361 120.015 293.407C118.792 293.72 118.047 294.976 118.36 296.206L143.773 395.779C144.032 396.802 144.95 397.514 146.007 397.514C146.073 397.514 146.146 397.514 146.213 397.507C146.332 397.494 146.452 397.474 146.572 397.447C147.808 397.128 148.553 395.872 148.24 394.642L122.827 295.063C122.561 294.052 121.643 293.334 120.593 293.334Z" fill="black"/>
<path d="M129.979 392.92C129.202 392.92 128.51 392.422 128.264 391.684L94.7011 290.416C94.3886 289.472 94.9005 288.448 95.8444 288.136C96.0306 288.076 96.2233 288.043 96.4095 288.043C97.1872 288.043 97.8786 288.541 98.1245 289.279L131.688 390.547C132 391.491 131.488 392.515 130.544 392.827C130.411 392.874 130.278 392.9 130.139 392.914C130.086 392.914 130.033 392.92 129.979 392.92Z" fill="white"/>
<path d="M96.4159 288.541C96.9676 288.541 97.4728 288.887 97.6589 289.439L131.222 390.707C131.448 391.391 131.076 392.129 130.391 392.355C130.292 392.388 130.198 392.408 130.099 392.415C130.059 392.422 130.019 392.422 129.979 392.422C129.434 392.422 128.922 392.076 128.743 391.524L95.1728 290.256C94.9468 289.572 95.319 288.834 96.0037 288.608C96.1367 288.561 96.2763 288.541 96.4159 288.541ZM96.4159 287.544C96.1699 287.544 95.9306 287.584 95.6979 287.657C94.4881 288.056 93.83 289.366 94.2288 290.569L127.792 391.837C128.104 392.781 128.982 393.412 129.979 393.412C130.046 393.412 130.119 393.412 130.185 393.406C130.358 393.392 130.531 393.352 130.697 393.299C131.907 392.9 132.558 391.591 132.159 390.388L98.5962 289.12C98.2838 288.176 97.4063 287.544 96.4159 287.544Z" fill="black"/>
<path d="M248.531 361.949C243.658 361.949 103.21 322.596 87.2159 318.109C86.7506 317.976 86.365 317.677 86.1324 317.258C85.8997 316.84 85.8399 316.348 85.9662 315.889C86.1855 315.111 86.8968 314.573 87.7012 314.573C87.8674 314.573 88.0336 314.599 88.1931 314.639C131.182 326.698 243.565 357.988 248.517 358.346C252.067 357.928 296.625 338.916 336.903 321.174C337.135 321.074 337.381 321.021 337.627 321.021C338.345 321.021 338.99 321.446 339.282 322.098C339.681 323.008 339.269 324.079 338.358 324.477C318.682 333.146 254.075 361.458 248.697 361.949C248.637 361.949 248.537 361.949 248.531 361.949Z" fill="white"/>
<path d="M87.694 315.065C87.8137 315.065 87.9333 315.078 88.053 315.112C131.169 327.203 244.043 358.633 248.53 358.839C248.537 358.839 248.544 358.839 248.55 358.839C252.306 358.5 303.532 336.417 337.102 321.626C337.274 321.553 337.454 321.513 337.627 321.513C338.132 321.513 338.604 321.806 338.823 322.291C339.116 322.949 338.817 323.72 338.152 324.012C324.086 330.208 254.094 360.946 248.65 361.445C248.61 361.451 248.577 361.451 248.544 361.451C248.537 361.451 248.537 361.451 248.53 361.451C243.744 361.451 103.356 322.118 87.3483 317.624C86.6503 317.431 86.2515 316.707 86.4443 316.016C86.6038 315.444 87.129 315.065 87.694 315.065ZM87.694 314.068C86.6703 314.068 85.7596 314.759 85.4804 315.75C85.3142 316.341 85.3873 316.96 85.6931 317.498C85.9923 318.036 86.4842 318.422 87.0824 318.588C113.194 325.914 243.704 362.448 248.53 362.448C248.61 362.448 248.67 362.442 248.736 362.442C254.194 361.943 318.861 333.605 338.551 324.93C339.714 324.418 340.239 323.055 339.727 321.892C339.362 321.054 338.531 320.516 337.62 320.516C337.301 320.516 336.989 320.582 336.696 320.709C296.532 338.404 252.133 357.356 248.504 357.835C243.717 357.396 147.914 330.859 88.3189 314.148C88.1195 314.094 87.9067 314.068 87.694 314.068Z" fill="black"/>
<path d="M247.939 392.615C245.599 392.615 153.89 369.874 99.4408 356.313C98.9755 356.193 98.5766 355.908 98.3307 355.489C98.0847 355.07 98.0116 354.591 98.1246 354.119C98.324 353.315 99.0419 352.75 99.8729 352.75C100.019 352.75 100.165 352.77 100.312 352.803C148.546 364.809 240.913 387.696 247.68 388.966C252.32 387.164 298.115 365.274 328.068 350.855C328.314 350.736 328.58 350.676 328.846 350.676C329.537 350.676 330.175 351.075 330.475 351.7C330.681 352.132 330.714 352.624 330.554 353.082C330.395 353.541 330.069 353.907 329.637 354.113C276.829 379.533 249.362 392.489 248.006 392.608C247.986 392.608 247.953 392.615 247.939 392.615Z" fill="white"/>
<path d="M328.852 351.181C329.337 351.181 329.809 351.454 330.029 351.919C330.341 352.57 330.069 353.348 329.417 353.661C299.723 367.953 249.661 391.957 247.959 392.11C247.952 392.11 247.945 392.11 247.939 392.11C245.566 392.11 143.453 366.749 99.56 355.821C98.862 355.648 98.4366 354.937 98.6094 354.239C98.7557 353.647 99.2875 353.248 99.8725 353.248C99.9788 353.248 100.085 353.262 100.192 353.288C149.21 365.493 242.142 388.513 247.726 389.477C251.595 388.061 297.695 366.031 328.287 351.301C328.467 351.221 328.659 351.181 328.852 351.181ZM328.852 350.184C328.507 350.184 328.167 350.257 327.855 350.41C298.161 364.709 252.891 386.346 247.633 388.453C239.889 386.938 148.366 364.263 100.431 352.324C100.251 352.278 100.059 352.258 99.8725 352.258C98.8155 352.258 97.8982 352.976 97.6389 354.006C97.4927 354.604 97.5857 355.223 97.8981 355.748C98.2106 356.273 98.7158 356.645 99.3141 356.798C165.856 373.364 245.659 393.113 247.939 393.113C247.972 393.113 248.019 393.113 248.052 393.107C248.577 393.06 250.192 392.914 329.856 354.558C330.999 354.006 331.485 352.63 330.933 351.48C330.547 350.696 329.73 350.184 328.852 350.184Z" fill="black"/>
<path d="M256.92 333.286C256.654 333.286 256.388 333.253 256.136 333.186L74.4597 285.743C73.6554 285.53 72.984 285.025 72.5652 284.307C72.1464 283.589 72.0267 282.752 72.2395 281.947C72.5984 280.578 73.8349 279.621 75.2441 279.621C75.51 279.621 75.7759 279.654 76.0352 279.721L256.714 326.904L342.64 292.251C343.012 292.098 343.404 292.025 343.803 292.025C345.079 292.025 346.209 292.79 346.688 293.973C347 294.744 346.994 295.588 346.668 296.353C346.342 297.117 345.737 297.709 344.966 298.021L258.09 333.06C257.811 333.173 257.512 333.246 257.213 333.273C257.113 333.279 257.02 333.286 256.92 333.286Z" fill="white"/>
<path d="M75.2442 280.119C75.4636 280.119 75.6829 280.145 75.9089 280.205L256.747 327.429L342.826 292.716C343.145 292.589 343.477 292.523 343.803 292.523C344.84 292.523 345.817 293.141 346.229 294.158C346.768 295.494 346.123 297.017 344.787 297.555L257.911 332.594C257.672 332.687 257.426 332.747 257.173 332.773C257.093 332.78 257.013 332.787 256.934 332.787C256.714 332.787 256.488 332.76 256.276 332.7L74.606 285.257C73.2101 284.892 72.3725 283.469 72.7381 282.066C73.0306 280.896 74.0875 280.119 75.2442 280.119ZM75.2442 279.122C73.6023 279.122 72.1664 280.232 71.7543 281.82C71.5083 282.751 71.6479 283.728 72.1332 284.559C72.6184 285.39 73.4028 285.982 74.3335 286.228L256.003 333.671C256.302 333.751 256.608 333.791 256.914 333.791C257.02 333.791 257.133 333.784 257.239 333.777C257.592 333.744 257.937 333.664 258.263 333.531L345.139 298.492C346.037 298.133 346.735 297.442 347.114 296.558C347.493 295.667 347.499 294.69 347.14 293.793C346.588 292.417 345.272 291.532 343.79 291.532C343.325 291.532 342.872 291.619 342.44 291.798L256.674 326.385L76.1616 279.235C75.8624 279.161 75.5566 279.122 75.2442 279.122Z" fill="black"/>
<path d="M246.117 421.225C245.851 421.225 245.585 421.192 245.333 421.126L111.126 392.182C110.302 391.97 109.624 391.458 109.205 390.74C108.787 390.022 108.667 389.184 108.88 388.38C109.239 387.011 110.475 386.053 111.884 386.053C112.15 386.053 112.416 386.087 112.675 386.153L245.865 414.837L319.891 374.314C320.317 374.141 320.709 374.061 321.108 374.061C322.384 374.061 323.514 374.826 323.993 376.009C324.637 377.598 323.86 379.412 322.271 380.057L247.334 420.973C247.001 421.112 246.702 421.185 246.403 421.212C246.303 421.219 246.21 421.225 246.117 421.225Z" fill="white"/>
<path d="M321.109 374.566C322.146 374.566 323.123 375.185 323.535 376.202C324.074 377.538 323.429 379.06 322.093 379.599L247.102 420.534C246.863 420.627 246.617 420.687 246.364 420.713C246.285 420.72 246.205 420.727 246.125 420.727C245.906 420.727 245.68 420.7 245.467 420.64L111.241 391.697C109.845 391.331 109.007 389.909 109.373 388.506C109.679 387.33 110.735 386.552 111.899 386.552C112.118 386.552 112.338 386.578 112.564 386.638L245.952 415.362L320.145 374.753C320.451 374.626 320.783 374.566 321.109 374.566ZM321.109 373.569C320.644 373.569 320.192 373.656 319.759 373.835C319.726 373.849 319.686 373.868 319.653 373.882L245.786 414.312L112.783 385.668C112.49 385.595 112.191 385.555 111.892 385.555C110.25 385.555 108.814 386.665 108.402 388.254C108.156 389.184 108.296 390.161 108.781 390.992C109.266 391.823 110.051 392.415 110.981 392.661C110.995 392.668 111.008 392.668 111.021 392.668L245.228 421.604C245.52 421.677 245.819 421.717 246.118 421.717C246.225 421.717 246.338 421.71 246.444 421.704C246.796 421.671 247.142 421.591 247.468 421.458C247.501 421.445 247.541 421.425 247.574 421.411L322.518 380.503C323.382 380.137 324.06 379.459 324.433 378.588C324.812 377.697 324.818 376.72 324.459 375.823C323.901 374.453 322.591 373.569 321.109 373.569Z" fill="black"/>
<path d="M144.118 59.1028L205.375 89.2093L158.43 93.4504L97.0142 60.1398L144.118 59.1028Z" fill="white" stroke="black" stroke-width="1.5" stroke-miterlimit="10" stroke-linecap="round" stroke-linejoin="round"/>
<path d="M130.372 59.1624L188.311 90.8177L173.793 92.0143L114.61 60.1329L130.372 59.1624Z" fill="#F032FF" stroke="black" stroke-width="1.5" stroke-miterlimit="10"/>
<path d="M176.938 74.9504L133.19 79.7433L118.752 72.072L162.34 68.4558L176.938 74.9504Z" fill="#00C8FF" stroke="black" stroke-width="1.5" stroke-miterlimit="10"/>
<path d="M158.431 93.4503L143.042 140.614L190.073 131.926L205.375 89.2092L158.431 93.4503Z" fill="white" stroke="black" stroke-width="1.5" stroke-miterlimit="10" stroke-linecap="round" stroke-linejoin="round"/>
<path d="M188.311 90.8181L173.554 135.024L159.481 137.61L173.793 92.0147L188.311 90.8181Z" fill="#F032FF" stroke="black" stroke-width="1.5" stroke-miterlimit="10"/>
<path d="M143.041 140.614L82.4756 104.565L97.0137 60.1396L158.43 93.4503L143.041 140.614Z" fill="white" stroke="black" stroke-width="1.5" stroke-miterlimit="10" stroke-linecap="round" stroke-linejoin="round"/>
<path d="M158.39 72.1918C158.39 72.1918 163.762 70.8025 171.632 64.833C179.503 58.8636 182.175 55.3205 187.972 58.6641C190.006 59.8408 190.558 68.1435 189.168 75.4424C187.779 82.7347 182.793 82.9408 175.621 81.6578C168.448 80.3749 157.114 75.8745 157.114 75.8745L158.39 72.1918Z" fill="#00C8FF" stroke="black" stroke-width="1.5" stroke-miterlimit="10"/>
<path d="M155.48 68.9545C155.48 68.9545 149.616 57.8067 143.773 50.8335C137.93 43.8536 136.401 42.9695 136.401 42.9695C136.401 42.9695 127.573 46.7253 124.243 52.0898C123.645 53.0471 123.252 54.1107 123.013 55.2075C121.757 60.8512 125.114 66.5149 130.551 68.4626L155.047 74.2725L155.48 68.9545Z" fill="#F032FF" stroke="black" stroke-width="1.5" stroke-miterlimit="10"/>
<path d="M136.401 42.9695C136.401 42.9695 137.93 43.8536 143.773 50.8335C149.616 57.8133 155.479 68.9545 155.479 68.9545C155.479 68.9545 140.383 52.4355 138.388 48.4935C136.394 44.5516 136.401 42.9695 136.401 42.9695Z" fill="black" stroke="black" stroke-width="1.5" stroke-miterlimit="10" stroke-linecap="round" stroke-linejoin="round"/>
<path d="M154.03 76.8917C154.03 76.8917 157.792 73.4018 154.136 72.8168C150.493 72.2385 138.096 60.5987 134.353 59.7944C126.456 58.0926 115.095 60.3395 114.617 60.1334C114.138 59.934 116.245 62.0014 125.705 69.8786C135.164 77.7559 141.193 77.5964 144.883 77.1311C148.572 76.6657 154.03 76.8917 154.03 76.8917Z" fill="#00C8FF" stroke="black" stroke-width="1.5" stroke-miterlimit="10"/>
<path d="M155.04 74.2724C155.04 74.2724 151.431 74.1528 146.93 72.8167" stroke="#233239" stroke-width="1.4328" stroke-miterlimit="10" stroke-linecap="round" stroke-linejoin="round"/>
<path d="M155.479 68.9543C155.479 68.9543 159.348 71.8925 159.049 74.8507C158.75 77.8088 155.3 77.5429 154.03 76.8915C152.76 76.24 155.479 68.9543 155.479 68.9543Z" fill="#00C8FF" stroke="black" stroke-width="1.5" stroke-miterlimit="10"/>
<path d="M181.81 89.2826C181.81 89.2826 187.221 92.0746 187.786 95.405C188.351 98.742 184.243 105.396 184.243 105.396C184.243 105.396 182.754 96.6614 181.265 93.3841C179.776 90.1069 178.034 88.3586 178.034 88.3586L181.81 89.2826Z" fill="black" stroke="black" stroke-width="1.5" stroke-miterlimit="10" stroke-linecap="round" stroke-linejoin="round"/>
<path d="M159.042 74.8508C159.042 74.8508 162.665 79.0055 168.196 81.9038C173.726 84.8021 181.803 89.2825 181.803 89.2825C181.803 89.2825 173.706 88.0594 168.648 87.1088C163.589 86.1582 162 84.9816 159.494 82.1165C156.988 79.2581 154.023 76.8849 154.023 76.8849C154.023 76.8849 155.06 74.0863 159.042 74.8508Z" fill="#F032FF" stroke="black" stroke-width="1.5" stroke-miterlimit="10"/>
<path d="M133.19 79.7437L117.728 125.432L103.323 116.936L118.752 72.0725L133.19 79.7437Z" fill="#00C8FF" stroke="black" stroke-width="1.5" stroke-miterlimit="10"/>
<path d="M299.178 129.998L266.266 192.338L318.655 176.93L359.763 105.675L299.178 129.998Z" fill="white" stroke="black" stroke-width="1.5" stroke-miterlimit="10" stroke-linecap="round" stroke-linejoin="round"/>
<path d="M318.655 176.93L331.777 189.227L370.206 116.61L359.763 105.675L318.655 176.93Z" fill="white" stroke="black" stroke-width="1.5" stroke-miterlimit="10" stroke-linecap="round" stroke-linejoin="round"/>
<path d="M331.777 189.228L277.367 203.633L266.266 192.339L318.655 176.93L331.777 189.228Z" fill="white" stroke="black" stroke-width="1.5" stroke-miterlimit="10" stroke-linecap="round" stroke-linejoin="round"/>
<path d="M283.032 160.298L339.07 141.333L343.345 134.1L286.376 154.289L283.032 160.298Z" fill="#00C8FF" stroke="black" stroke-width="1.5" stroke-miterlimit="10"/>
<path d="M339.07 141.333L350.935 153.185L354.678 146.006L343.344 134.1L339.07 141.333Z" fill="#00C8FF" stroke="black" stroke-width="1.5" stroke-miterlimit="10"/>
<path d="M319.334 122.002L287.951 185.725L295.263 183.704L326.905 118.944L319.334 122.002Z" fill="#F032FF" stroke="black" stroke-width="1.5" stroke-miterlimit="10"/>
<path d="M287.951 185.724L298.946 197.989L306.318 195.948L295.263 183.703L287.951 185.724Z" fill="#F032FF" stroke="black" stroke-width="1.5" stroke-miterlimit="10"/>
<path d="M402.042 158.709C401.47 158.649 400.805 158.802 400.081 159.121C400.366 159.52 400.652 160.025 400.931 160.677C401.357 160.491 401.696 160.411 401.935 160.438C404.042 160.624 406.622 170.735 407.619 187.181C407.692 188.264 407.745 189.368 407.798 190.498L409.713 191.043C409.666 190.112 409.606 188.995 409.533 187.732C409.334 184.654 409.041 180.752 408.583 176.844C406.741 161.142 404.129 158.902 402.042 158.709Z" fill="white" stroke="black" stroke-width="1.5" stroke-miterlimit="10" stroke-linecap="round" stroke-linejoin="round"/>
<path d="M379.267 181.862L381.141 182.308C381.873 181.291 382.152 180.912 382.843 179.968C390.508 169.618 396.078 163.96 399.282 161.667C399.003 160.936 398.711 160.384 398.412 160.052C393.14 163.555 385.629 173.068 380.942 179.409C380.118 180.513 379.878 180.998 379.267 181.862Z" fill="white" stroke="black" stroke-width="1.5" stroke-miterlimit="10" stroke-linecap="round" stroke-linejoin="round"/>
<path d="M423.652 195.191L422.901 194.958L366.423 177.615L365.107 182.414L411.394 195.816L423.652 195.191Z" fill="white" stroke="black" stroke-width="1.5" stroke-miterlimit="10" stroke-linecap="round" stroke-linejoin="round"/>
<path d="M372.413 183.923L366.423 177.615L365.107 182.414L372.413 183.923Z" fill="black" stroke="black" stroke-width="1.5" stroke-miterlimit="10" stroke-linecap="round" stroke-linejoin="round"/>
<path d="M417.017 196.746L402.998 292.41L321.087 267.874L362.761 181.224L417.017 196.746Z" fill="url(#paint1_linear_11039_796)" stroke="black" stroke-width="1.5" stroke-miterlimit="10"/>
<path d="M373.856 184.388L375.784 184.933C376.548 183.783 377.279 182.693 377.997 181.63C389.072 165.456 395.872 159.44 397.694 159.58C397.933 159.6 398.172 159.753 398.405 160.045C398.704 160.384 398.997 160.929 399.276 161.661C400.864 165.689 402.307 175.348 402.746 188.975C402.799 190.165 402.819 191.381 402.845 192.631L404.76 193.183C404.74 192.159 404.707 190.929 404.66 189.54C404.534 186.143 404.341 181.849 403.976 177.541C403.198 168.328 402.101 163.336 400.938 160.663C400.658 160.012 400.366 159.507 400.087 159.108C399.329 158.038 398.558 157.725 397.853 157.665C393.12 157.3 382.291 172.031 376.103 181.058C375.252 182.301 374.501 183.424 373.856 184.388Z" fill="white" stroke="black" stroke-width="1.5" stroke-miterlimit="10" stroke-linecap="round" stroke-linejoin="round"/>
<path d="M402.999 292.41L416.008 288.641L423.652 195.19L407.971 194.233L417.018 196.746L402.999 292.41Z" fill="black" stroke="black" stroke-width="1.5" stroke-miterlimit="10" stroke-linecap="round" stroke-linejoin="round"/>
<path d="M229.764 192.844C229.764 192.844 215 155.405 211.244 150.566L222.339 193.615L229.764 192.844Z" fill="black"/>
<path d="M211.244 150.566C211.244 150.566 206.345 143.267 201.685 144.842C197.025 146.418 195.171 152.075 195.716 154.514C196.254 156.96 197.504 160.271 197.504 160.271C197.504 160.271 198.621 150.466 203.134 149.861C207.641 149.256 212.215 155.212 212.215 155.212L211.244 150.566Z" fill="black"/>
<path d="M195.716 154.514L210.886 194.758L202.869 194.905C202.869 194.905 194.845 164.2 195.716 154.514Z" fill="black"/>
<path d="M201.219 210.726C201.013 210.719 200.833 210.586 200.76 210.387L194.91 193.216C194.864 193.07 194.884 192.91 194.964 192.784C195.043 192.658 195.183 192.571 195.336 192.558C195.336 192.558 239.322 188.603 239.336 188.603C239.522 188.603 239.695 188.709 239.781 188.875C239.874 189.055 239.848 189.274 239.715 189.427L220.842 211.178C220.749 211.284 220.61 211.351 220.463 211.351C220.463 211.344 201.219 210.726 201.219 210.726Z" fill="white"/>
<path d="M239.336 189.101L220.464 210.852L201.233 210.227L195.383 193.056L239.336 189.101ZM239.336 188.104C239.323 188.104 239.316 188.104 239.303 188.104C239.283 188.104 239.256 188.104 239.236 188.111L195.297 192.059C194.991 192.086 194.718 192.252 194.552 192.511C194.386 192.771 194.346 193.09 194.446 193.375L200.295 210.546C200.428 210.938 200.794 211.211 201.206 211.224L220.437 211.849C220.451 211.849 220.457 211.849 220.471 211.849C220.756 211.849 221.036 211.723 221.222 211.503L240.067 189.786C240.234 189.606 240.34 189.367 240.34 189.108C240.34 188.556 239.895 188.111 239.349 188.111C239.343 188.104 239.343 188.104 239.336 188.104Z" fill="black"/>
<path d="M171.472 207.575C171.259 207.575 171.059 207.435 171 207.229C170.926 207.01 171.02 206.764 171.226 206.651L195.137 192.625C195.216 192.578 195.303 192.558 195.389 192.558C195.449 192.558 195.502 192.565 195.555 192.585C195.695 192.638 195.801 192.744 195.855 192.884L200.102 204.57C200.156 204.716 200.136 204.876 200.056 205.009C199.969 205.142 199.83 205.222 199.677 205.235C199.677 205.235 171.485 207.575 171.472 207.575Z" fill="white"/>
<path d="M195.383 193.05L199.631 204.736L171.472 207.076L195.383 193.05ZM195.383 192.053C195.21 192.053 195.03 192.099 194.878 192.192L170.967 206.219C170.568 206.451 170.382 206.936 170.521 207.382C170.654 207.801 171.04 208.08 171.472 208.08C171.498 208.08 171.525 208.08 171.558 208.073L199.717 205.733C200.029 205.707 200.309 205.54 200.475 205.275C200.641 205.015 200.681 204.69 200.575 204.397L196.327 192.711C196.227 192.432 196.008 192.212 195.728 192.113C195.615 192.073 195.496 192.053 195.383 192.053Z" fill="black"/>
<path d="M230.349 204.091L236.278 192.671L229.923 168.521L217.107 184.534C213.916 178.419 209.861 170.661 209.861 170.661L206.996 181.25L203.812 178.1L177.953 178.066L183.278 187.426L166.859 199.079L177.202 210.121L196.241 210.2L196.872 211.317L199.352 210.214L201.233 210.22L200.781 209.575L210.426 205.288L230.349 204.091Z" fill="url(#paint2_linear_11039_796)"/>
<path d="M264.032 304.921C263.866 304.894 263.726 304.788 263.653 304.635L217.021 203.361C216.914 203.135 216.994 202.869 217.207 202.736L239.071 188.676C239.15 188.623 239.243 188.596 239.343 188.596C239.383 188.596 239.429 188.603 239.469 188.61C239.602 188.643 239.715 188.736 239.782 188.862L291.18 286.454C291.247 286.58 291.253 286.733 291.2 286.866C291.147 286.999 291.041 287.106 290.901 287.152L275.765 292.45L264.477 304.755C264.384 304.861 264.251 304.914 264.112 304.914C264.085 304.928 264.058 304.928 264.032 304.921Z" fill="white"/>
<path d="M239.336 189.101L290.734 286.693L275.478 292.031L264.111 304.429L217.479 203.154L239.336 189.101ZM239.336 188.104C239.143 188.104 238.957 188.157 238.797 188.264L216.934 202.323C216.515 202.589 216.362 203.127 216.568 203.579L263.2 304.854C263.34 305.16 263.619 305.372 263.951 305.419C264.005 305.426 264.058 305.432 264.104 305.432C264.384 305.432 264.649 305.319 264.842 305.107L276.043 292.895L291.06 287.637C291.333 287.544 291.552 287.331 291.658 287.059C291.765 286.786 291.745 286.487 291.612 286.228L240.22 188.636C240.087 188.39 239.861 188.21 239.588 188.137C239.509 188.111 239.422 188.104 239.336 188.104Z" fill="black"/>
<path d="M193.456 300.6C193.236 300.587 193.05 300.434 193.004 300.214L170.987 207.196C170.954 207.056 170.98 206.903 171.067 206.79C171.153 206.677 171.286 206.598 171.426 206.584C171.426 206.584 217.46 202.662 217.473 202.662C217.666 202.662 217.845 202.775 217.925 202.955L264.557 304.229C264.63 304.389 264.617 304.575 264.517 304.721C264.424 304.861 264.271 304.941 264.105 304.941C264.099 304.927 193.456 300.6 193.456 300.6Z" fill="white"/>
<path d="M217.48 203.161L264.112 304.436L193.489 300.108L171.479 207.083L217.48 203.161ZM217.48 202.164C217.453 202.164 217.42 202.164 217.393 202.17L171.392 206.092C171.107 206.119 170.841 206.265 170.668 206.498C170.495 206.731 170.435 207.03 170.508 207.316L192.518 300.341C192.618 300.766 192.99 301.079 193.429 301.105L264.052 305.433C264.072 305.433 264.092 305.433 264.112 305.433C264.438 305.433 264.75 305.273 264.936 305.001C265.136 304.708 265.169 304.336 265.016 304.023L218.384 202.742C218.217 202.383 217.865 202.164 217.48 202.164Z" fill="black"/>
<path d="M243.643 227.923L228.514 197.451" stroke="black" stroke-width="1.5" stroke-miterlimit="10" stroke-linecap="round" stroke-linejoin="round"/>
<path d="M275.479 292.031L245.99 232.643" stroke="black" stroke-width="1.5" stroke-miterlimit="10" stroke-linecap="round" stroke-linejoin="round"/>
<path d="M210.214 210.646C210.214 210.646 195.45 173.207 191.694 168.368L202.782 211.417L210.214 210.646Z" fill="black"/>
<path d="M191.694 168.368C191.694 168.368 186.795 161.069 182.135 162.644C177.475 164.22 175.62 169.877 176.166 172.316C176.704 174.763 177.954 178.073 177.954 178.073C177.954 178.073 179.07 168.268 183.584 167.663C188.098 167.058 192.665 173.014 192.665 173.014L191.694 168.368Z" fill="black"/>
<path d="M176.165 172.316L191.335 212.56L183.318 212.707C183.318 212.707 175.295 182.002 176.165 172.316Z" fill="black"/>
<path d="M244.734 215.506C246.042 214.896 245.688 211.37 243.944 207.63C242.2 203.89 239.727 201.353 238.419 201.962C237.111 202.572 237.465 206.098 239.209 209.838C240.953 213.578 243.426 216.115 244.734 215.506Z" fill="#F032FF"/>
<path d="M243.345 242.151C244.652 241.541 244.299 238.015 242.555 234.275C240.811 230.535 238.337 227.998 237.03 228.607C235.722 229.217 236.076 232.743 237.819 236.483C239.563 240.223 242.037 242.76 243.345 242.151Z" fill="#00C8FF"/>
<path d="M264.78 258.504C266.088 257.894 265.734 254.368 263.99 250.628C262.246 246.888 259.772 244.35 258.465 244.96C257.157 245.57 257.511 249.096 259.255 252.836C260.999 256.576 263.472 259.113 264.78 258.504Z" fill="#00C8FF"/>
<path d="M263.399 285.152C264.707 284.542 264.353 281.016 262.609 277.276C260.865 273.536 258.392 270.999 257.084 271.608C255.776 272.218 256.13 275.744 257.874 279.484C259.618 283.224 262.092 285.761 263.399 285.152Z" fill="#F032FF"/>
<path d="M218.69 233.008C220.432 236.751 222.911 239.283 224.221 238.672C225.531 238.06 225.178 234.537 223.437 230.795C221.695 227.052 219.215 224.519 217.906 225.131C216.59 225.742 216.942 229.266 218.69 233.008Z" fill="#F032FF"/>
<path d="M235.921 269.078C237.662 272.82 240.142 275.353 241.452 274.741C242.761 274.13 242.409 270.607 240.667 266.864C238.926 263.122 236.446 260.589 235.136 261.2C233.827 261.812 234.179 265.342 235.921 269.078Z" fill="#F032FF"/>
<path d="M190.351 236.487C191.658 235.877 191.305 232.351 189.561 228.611C187.817 224.871 185.343 222.334 184.036 222.944C182.728 223.553 183.082 227.079 184.826 230.819C186.569 234.559 189.043 237.097 190.351 236.487Z" fill="#F032FF"/>
<path d="M205.094 274.362C206.402 273.752 206.048 270.226 204.304 266.486C202.56 262.746 200.087 260.209 198.779 260.818C197.471 261.428 197.825 264.954 199.569 268.694C201.313 272.434 203.787 274.971 205.094 274.362Z" fill="#F032FF"/>
<path d="M203.181 224.866C204.489 224.256 204.135 220.73 202.391 216.99C200.648 213.25 198.174 210.713 196.866 211.322C195.559 211.932 195.912 215.458 197.656 219.198C199.4 222.938 201.874 225.476 203.181 224.866Z" fill="#00C8FF"/>
<path d="M212.069 255.058C213.81 258.801 216.29 261.333 217.6 260.722C218.909 260.11 218.557 256.587 216.815 252.844C215.073 249.102 212.594 246.569 211.284 247.181C209.975 247.792 210.327 251.315 212.069 255.058Z" fill="#00C8FF"/>
<path d="M200.041 297.349C201.348 296.74 200.995 293.214 199.251 289.474C197.507 285.734 195.033 283.196 193.726 283.806C192.418 284.416 192.772 287.942 194.515 291.682C196.259 295.422 198.733 297.959 200.041 297.349Z" fill="#00C8FF"/>
<path d="M254.77 301.526C256.078 300.917 255.724 297.39 253.98 293.651C252.236 289.911 249.762 287.373 248.455 287.983C247.147 288.593 247.501 292.119 249.245 295.859C250.989 299.599 253.462 302.136 254.77 301.526Z" fill="#00C8FF"/>
<path d="M189.486 257.876C190.794 257.266 190.44 253.74 188.696 250C186.953 246.26 184.479 243.723 183.171 244.332C181.864 244.942 182.217 248.468 183.961 252.208C185.705 255.948 188.179 258.486 189.486 257.876Z" fill="#00C8FF"/>
<path d="M226.096 292.211C227.837 295.954 230.317 298.486 231.626 297.875C232.936 297.263 232.584 293.74 230.842 289.997C229.1 286.255 226.621 283.722 225.311 284.334C224.002 284.945 224.354 288.469 226.096 292.211Z" fill="#F032FF"/>
<path d="M67.6987 232.343L127.54 202.556L144.185 181.922L93.3514 205.933L67.6987 232.343Z" fill="black" stroke="black" stroke-width="1.5" stroke-miterlimit="10" stroke-linecap="round" stroke-linejoin="round"/>
<path d="M7.39258 142.104L93.3514 205.933L67.6987 232.343L1.62256 148.239L7.98421 148.632L7.39258 142.104Z" fill="url(#paint3_linear_11039_796)" stroke="black" stroke-width="1.5" stroke-miterlimit="10"/>
<path d="M7.98438 148.631L80.349 220.065" stroke="black" stroke-width="1.5" stroke-miterlimit="10" stroke-linecap="round" stroke-linejoin="round"/>
<path d="M7.39258 142.104L63.8897 131.355L144.185 181.922L93.3514 205.933L7.39258 142.104Z" fill="url(#paint4_linear_11039_796)" stroke="black" stroke-width="1.5" stroke-miterlimit="10"/>
<path d="M32.9921 140.707C32.9921 140.707 12.4513 127.526 16.9517 120.692C21.4454 113.858 47.5235 129.772 51.2661 135.994" stroke="black" stroke-width="3" stroke-miterlimit="10" stroke-linecap="round" stroke-linejoin="round"/>
<path d="M21.5243 139.89C21.5243 139.89 8.99372 131.7 5.17806 136.128C1.36239 140.555 8.10295 145.667 8.10295 145.667" stroke="black" stroke-width="3" stroke-miterlimit="10" stroke-linecap="round" stroke-linejoin="round"/>
<path d="M327.111 85.5201L252.659 120.24C250.246 121.363 247.375 120.32 246.245 117.907L226.249 75.0303C225.125 72.6173 226.169 69.7456 228.582 68.6155L303.034 33.8956C305.447 32.7722 308.319 33.8159 309.449 36.2289L329.445 79.1052C330.575 81.5249 329.531 84.3966 327.111 85.5201Z" fill="url(#paint5_linear_11039_796)" stroke="black" stroke-width="1.5" stroke-miterlimit="10"/>
<path d="M262.71 91.895L247.621 98.9347C246.504 99.4532 245.181 98.9746 244.662 97.8578L239.889 87.6207C239.371 86.5039 239.85 85.181 240.966 84.6625L256.056 77.6228C257.173 77.1043 258.496 77.5829 259.014 78.6997L263.787 88.9369C264.312 90.047 263.827 91.3765 262.71 91.895Z" fill="white" stroke="black" stroke-width="1.5" stroke-miterlimit="10" stroke-linecap="round" stroke-linejoin="round"/>
<path d="M258.368 104.273L249.56 108.38L251.259 112.025L260.067 107.918L258.368 104.273Z" fill="black"/>
<path d="M270.06 98.8211L261.252 102.928L262.952 106.573L271.76 102.466L270.06 98.8211Z" fill="black"/>
<path d="M281.747 93.3726L272.939 97.4797L274.639 101.125L283.447 97.0175L281.747 93.3726Z" fill="black"/>
<path d="M293.441 87.9202L284.633 92.0273L286.332 95.6723L295.14 91.5652L293.441 87.9202Z" fill="black"/>
<path d="M305.133 82.4691L296.325 86.5762L298.025 90.2211L306.833 86.114L305.133 82.4691Z" fill="black"/>
<path d="M316.82 77.0199L308.012 81.127L309.712 84.7719L318.52 80.6648L316.82 77.0199Z" fill="black"/>
<path d="M275.32 54.2286L233.418 73.7668L234.41 75.8935L276.311 56.3553L275.32 54.2286Z" fill="black"/>
<path d="M318.409 350.875C322.158 352.443 331.252 352.098 331.259 352.098C331.352 352.091 329.211 346.168 329.032 345.809C326.971 341.661 320.549 334.861 315.424 335.638C311.728 336.197 309.727 339.933 310.618 343.403C311.529 346.953 315.218 349.538 318.409 350.875Z" fill="black"/>
<path d="M422.622 356.399C419.012 356.312 412.199 353.128 410.716 352.417C409.48 354.491 408.257 356.651 407.113 358.978C405.139 362.973 403.238 367.341 401.888 372.02C401.815 372.28 401.769 372.559 401.696 372.818C402.214 372.034 405.385 367.939 405.638 367.68C408.868 364.362 417.065 359.855 421.705 362.162C425.048 363.824 425.813 367.992 423.905 371.023C421.957 374.121 417.65 375.457 414.2 375.75C410.231 376.089 401.961 373.111 401.649 373.004C400.439 377.405 399.529 382.012 398.87 386.745C398.385 390.175 398.039 393.665 397.727 397.175C398.432 396.171 401.377 392.368 401.616 392.116C404.847 388.799 413.043 384.292 417.683 386.598C421.027 388.26 421.791 392.428 419.883 395.459C417.935 398.557 413.628 399.893 410.178 400.186C406.302 400.518 398.365 397.7 397.694 397.46C397.548 399.056 397.401 400.644 397.275 402.24C396.85 407.458 396.444 412.69 395.886 417.835C395.693 419.616 395.434 421.371 395.188 423.126C396.285 421.657 398.339 419.012 398.538 418.805C401.769 415.488 409.965 410.981 414.605 413.288C417.949 414.95 418.713 419.118 416.805 422.149C414.858 425.247 410.55 426.583 407.1 426.875C403.637 427.175 396.916 424.948 395.028 424.296C394.589 427.215 394.097 430.1 393.473 432.918C393.18 434.128 392.954 435.378 392.602 436.521C392.276 437.684 391.95 438.828 391.625 439.971C390.88 442.298 390.195 444.471 389.438 446.619C389.065 447.709 388.686 448.726 388.314 449.783C389.205 448.128 390.654 445.522 390.814 445.296C393.506 441.527 400.918 435.83 405.864 437.405C409.427 438.542 410.809 442.544 409.38 445.834C407.924 449.191 403.863 451.165 400.506 451.976C396.796 452.874 388.793 451.378 387.816 451.185C386.885 453.758 385.954 456.257 385.044 458.577C384.651 459.581 384.266 460.545 383.88 461.496L380.437 461.549C381.009 460.233 381.594 458.857 382.192 457.427C383.063 455.347 383.953 453.126 384.844 450.84C383.96 450.428 377.106 447.17 374.408 444.332C371.39 446.08 367.973 447.523 367.368 447.775C368.013 450.434 368.618 453.033 369.136 455.473C369.608 457.667 370.027 459.734 370.406 461.702L369.143 461.722H367.155C366.843 459.927 366.51 458.059 366.131 456.085C365.713 453.871 365.227 451.531 364.709 449.125C363.705 449.271 355.662 450.414 351.999 449.357C348.675 448.4 344.713 446.253 343.404 442.829C342.121 439.486 343.676 435.544 347.286 434.56C352.291 433.204 359.451 439.22 361.977 443.102C362.136 443.348 363.718 446.506 364.49 448.128C364.17 446.678 363.858 445.236 363.499 443.734C363 441.566 362.402 439.293 361.837 437.086C361.505 435.949 361.166 434.806 360.82 433.649C360.501 432.473 360.049 431.396 359.67 430.246C359.072 428.577 358.367 426.889 357.676 425.2C355.502 425.839 349.081 427.607 345.764 427.175C342.333 426.729 338.092 425.207 336.278 422.029C334.503 418.918 335.447 414.784 338.863 413.268C343.603 411.167 351.593 416.033 354.678 419.483C354.778 419.596 355.356 420.394 356.027 421.345C355.296 419.716 354.571 418.088 353.78 416.466C351.527 411.852 349.087 407.226 346.661 402.579C346.156 401.608 345.664 400.638 345.165 399.667C343.337 400.212 336.404 402.193 332.921 401.741C329.49 401.296 325.243 399.774 323.435 396.596C321.66 393.485 322.604 389.35 326.02 387.835C330.76 385.734 338.75 390.594 341.835 394.05C341.941 394.177 342.633 395.127 343.39 396.204C342.107 393.658 340.864 391.112 339.708 388.539C337.68 384.046 335.925 379.512 334.569 374.985C333.924 375.185 325.841 377.664 321.972 377.166C318.542 376.72 314.301 375.198 312.486 372.02C310.711 368.909 311.655 364.775 315.072 363.259C319.812 361.158 327.802 366.024 330.886 369.474C331.106 369.72 333.559 373.19 334.396 374.46C334.383 374.407 334.356 374.354 334.343 374.3C332.967 369.534 332.243 364.815 331.771 360.308C331.292 355.807 331.232 351.533 331.272 347.598C331.305 343.662 331.571 340.059 331.844 336.875C332.003 335.153 332.176 333.578 332.356 332.115C332.336 332.129 332.269 332.182 332.269 332.182C332.189 332.235 330.355 326.206 330.288 325.814C329.457 321.26 330.527 311.967 335.094 309.514C338.385 307.746 342.227 309.541 343.596 312.858C344.992 316.241 343.59 320.522 341.835 323.507C340.04 326.558 334.104 330.886 332.621 331.943C332.462 333.465 332.316 335.1 332.189 336.908C331.99 340.092 331.804 343.682 331.857 347.604C331.87 348.648 331.923 349.771 331.957 350.861C332.282 349.013 332.761 346.481 332.834 346.241C334.197 341.814 339.422 334.063 344.607 333.99C348.343 333.937 350.922 337.301 350.61 340.87C350.29 344.513 347.066 347.671 344.135 349.505C341.077 351.42 333.638 352.53 332.01 352.756C332.123 355.169 332.289 357.642 332.621 360.214C333.18 364.642 334.004 369.322 335.46 373.975C335.54 374.234 335.659 374.493 335.739 374.746C335.739 373.809 336.125 368.643 336.191 368.285C337.055 363.738 341.403 355.455 346.548 354.817C350.257 354.358 353.189 357.409 353.269 360.999C353.348 364.662 350.497 368.145 347.784 370.292C344.66 372.765 336.118 374.846 335.799 374.925C337.215 379.26 339.003 383.607 341.064 387.915C342.553 391.039 344.188 394.15 345.863 397.248C345.896 396.025 346.255 391.225 346.315 390.886C347.179 386.339 351.527 378.056 356.672 377.418C360.381 376.959 363.313 380.017 363.393 383.594C363.472 387.256 360.621 390.74 357.909 392.887C354.857 395.3 346.688 397.334 345.996 397.5C346.754 398.91 347.512 400.319 348.283 401.721C350.802 406.308 353.355 410.895 355.728 415.502C356.552 417.097 357.304 418.699 358.068 420.301C358.174 418.466 358.427 415.136 358.48 414.85C359.344 410.303 363.692 402.021 368.837 401.382C372.546 400.924 375.478 403.982 375.558 407.565C375.637 411.221 372.786 414.711 370.073 416.858C367.348 419.018 360.514 420.873 358.58 421.365C359.823 424.037 361.006 426.716 362.037 429.415C362.455 430.585 362.961 431.755 363.3 432.898C363.665 434.048 364.031 435.185 364.39 436.308C365.048 438.662 365.673 440.849 366.238 443.062C366.53 444.179 366.776 445.236 367.049 446.319C366.876 444.445 366.65 441.473 366.663 441.201C366.829 436.574 369.867 427.733 374.86 426.317C378.456 425.3 381.82 427.879 382.444 431.409C382.524 431.861 382.557 432.313 382.551 432.765C384.778 436.248 385.948 441.227 385.928 444.305C385.928 444.604 385.502 448.101 385.25 449.883C385.781 448.5 386.32 447.124 386.852 445.668C387.629 443.587 388.387 441.36 389.132 439.207C389.477 438.077 389.823 436.933 390.182 435.783C390.561 434.626 390.78 433.476 391.099 432.307C391.518 430.585 391.871 428.79 392.216 426.995C390.049 426.33 383.721 424.263 381.188 422.069C378.576 419.809 375.87 416.193 376.116 412.544C376.355 408.967 379.42 406.042 383.103 406.66C388.214 407.525 392.196 415.987 392.861 420.567C392.881 420.713 392.921 421.697 392.961 422.867C393.253 421.105 393.546 419.351 393.778 417.556C394.443 412.464 394.962 407.265 395.5 402.047C395.613 400.964 395.739 399.88 395.859 398.79C394.031 398.238 387.158 396.058 384.505 393.764C381.893 391.498 379.187 387.888 379.433 384.239C379.672 380.662 382.737 377.737 386.42 378.362C391.532 379.226 395.513 387.689 396.178 392.269C396.205 392.435 396.245 393.605 396.285 394.921C396.617 392.096 396.989 389.277 397.441 386.499C398.226 381.633 399.263 376.88 400.632 372.359C399.987 372.173 391.871 369.78 388.926 367.228C386.313 364.961 383.608 361.351 383.854 357.702C384.093 354.125 387.157 351.2 390.84 351.819C395.952 352.683 399.934 361.145 400.599 365.725C400.645 366.051 400.778 370.299 400.778 371.814C400.798 371.761 400.805 371.701 400.825 371.648C402.307 366.915 404.301 362.581 406.402 358.559C408.489 354.544 410.789 350.941 412.996 347.684C415.197 344.42 417.404 341.568 419.385 339.055C420.468 337.706 421.479 336.49 422.442 335.366C422.423 335.366 422.329 335.366 422.329 335.366C422.236 335.366 424.031 329.33 424.184 328.965C426.006 324.704 432.021 317.544 437.18 318.023C440.903 318.362 443.116 321.978 442.425 325.495C441.72 329.084 438.184 331.883 435.079 333.405C431.895 334.961 424.563 335.293 422.742 335.353C421.771 336.543 420.741 337.819 419.644 339.255C417.723 341.801 415.582 344.693 413.462 347.99C412.897 348.867 412.325 349.831 411.747 350.762C413.036 349.399 414.831 347.551 415.024 347.391C418.6 344.453 427.235 340.87 431.603 343.669C434.747 345.69 435.046 349.917 432.813 352.723C430.512 355.634 426.079 356.485 422.622 356.399Z" fill="black"/>
<path d="M410.49 351.453C410.57 351.5 412.052 345.377 412.099 344.985C412.664 340.392 411.062 331.178 406.355 328.991C402.965 327.416 399.236 329.43 398.066 332.82C396.869 336.277 398.518 340.472 400.446 343.35C402.706 346.72 410.483 351.453 410.49 351.453Z" fill="black"/>
<path d="M222.991 13.9267L219.328 15.7149C217.274 16.712 215.678 18.467 214.881 20.6075L212.8 26.1249C212.727 26.3243 212.574 26.4772 212.375 26.5503C211.996 26.6899 211.57 26.4972 211.431 26.1249L209.357 20.6075C208.552 18.4736 206.963 16.732 204.909 15.7349L201.247 13.9533C201.1 13.8802 200.981 13.7606 200.908 13.6143C200.728 13.2487 200.888 12.81 201.247 12.6305L204.909 10.849C206.97 9.85184 208.559 8.0969 209.357 5.95641L211.437 0.438988C211.51 0.286096 211.637 0.166438 211.783 0.0933158C212.162 -0.092814 212.614 0.0600812 212.807 0.438988L214.887 5.94311C215.685 8.0836 217.28 9.83854 219.334 10.8357L222.997 12.6172C223.25 12.7435 223.409 13.0027 223.409 13.2819C223.396 13.5545 223.237 13.8071 222.991 13.9267Z" fill="#00C8FF"/>
<path d="M383.801 61.8022L379.221 64.0357C376.655 65.2788 374.661 67.4725 373.657 70.1448L371.058 77.0449C370.965 77.2908 370.772 77.4836 370.526 77.5833C370.054 77.7562 369.523 77.5235 369.343 77.0449L366.751 70.1448C365.747 67.4725 363.759 65.2988 361.187 64.0557L356.606 61.8288C356.42 61.7357 356.274 61.5894 356.181 61.4033C355.962 60.9446 356.154 60.3995 356.606 60.1802L361.187 57.9466C363.759 56.7035 365.747 54.5099 366.751 51.8376L369.35 44.9375C369.443 44.7514 369.596 44.5918 369.782 44.5054C370.254 44.2727 370.825 44.4655 371.058 44.9375L373.657 51.8243C374.654 54.5032 376.649 56.6902 379.215 57.94L383.795 60.1669C384.114 60.3198 384.313 60.6455 384.313 60.9978C384.313 61.3369 384.114 61.6493 383.801 61.8022Z" fill="black"/>
<path d="M411.555 96.0701L407.892 97.8582C405.838 98.8554 404.242 100.61 403.445 102.751L401.364 108.268C401.291 108.468 401.138 108.621 400.938 108.694C400.56 108.833 400.134 108.64 399.995 108.268L397.921 102.751C397.116 100.617 395.527 98.8753 393.473 97.8782L389.811 96.0966C389.664 96.0235 389.545 95.9039 389.472 95.7576C389.292 95.392 389.452 94.9533 389.811 94.7738L393.473 92.9923C395.534 91.9952 397.123 90.2402 397.921 88.0997L400.001 82.5823C400.074 82.4294 400.201 82.3098 400.347 82.2366C400.726 82.0505 401.178 82.2034 401.371 82.5823L403.451 88.0864C404.249 90.2269 405.844 91.9818 407.898 92.979L411.561 94.7605C411.814 94.8868 411.973 95.146 411.973 95.4252C411.967 95.6978 411.807 95.9504 411.555 96.0701Z" fill="black"/>
<path d="M408.836 27.0622L406.084 28.405C404.541 29.1495 403.345 30.4657 402.747 32.0744L401.191 36.2158C401.138 36.362 401.018 36.4817 400.872 36.5349C400.586 36.6412 400.267 36.495 400.161 36.2158L398.605 32.0744C398 30.4723 396.81 29.1694 395.268 28.4183L392.516 27.0821C392.403 27.0289 392.317 26.9359 392.264 26.8295C392.131 26.557 392.244 26.2246 392.516 26.0916L395.268 24.7555C396.81 24.011 398.007 22.6948 398.605 21.0861L400.161 16.9447C400.214 16.8317 400.307 16.7386 400.42 16.6854C400.706 16.5458 401.045 16.6655 401.184 16.9447L402.74 21.0728C403.338 22.6815 404.535 23.991 406.077 24.7422L408.829 26.0783C409.022 26.1714 409.142 26.3642 409.142 26.5769C409.142 26.7896 409.022 26.9758 408.836 27.0622Z" fill="black"/>
<path d="M309.801 240.214L306.138 242.002C304.084 242.999 302.488 244.754 301.691 246.895L299.61 252.412C299.537 252.612 299.384 252.765 299.185 252.838C298.806 252.977 298.38 252.785 298.241 252.412L296.167 246.895C295.362 244.761 293.774 243.019 291.719 242.022L288.057 240.241C287.91 240.168 287.791 240.048 287.718 239.902C287.538 239.536 287.698 239.097 288.057 238.918L291.719 237.136C293.78 236.139 295.369 234.384 296.167 232.244L298.247 226.726C298.32 226.573 298.447 226.454 298.593 226.381C298.972 226.195 299.424 226.347 299.617 226.726L301.697 232.23C302.495 234.371 304.09 236.126 306.145 237.123L309.807 238.905C310.06 239.031 310.219 239.29 310.219 239.569C310.206 239.849 310.047 240.094 309.801 240.214Z" fill="white"/>
<path d="M259.133 150.719L256.381 152.062C254.839 152.806 253.642 154.122 253.044 155.731L251.488 159.873C251.435 160.019 251.315 160.138 251.169 160.192C250.883 160.298 250.564 160.152 250.458 159.873L248.902 155.731C248.297 154.129 247.108 152.826 245.565 152.075L242.813 150.739C242.7 150.686 242.614 150.593 242.561 150.486C242.428 150.214 242.541 149.881 242.813 149.748L245.565 148.412C247.108 147.668 248.304 146.352 248.902 144.743L250.458 140.601C250.511 140.488 250.604 140.395 250.717 140.342C251.003 140.203 251.342 140.322 251.482 140.601L253.037 144.73C253.635 146.338 254.832 147.648 256.374 148.399L259.126 149.735C259.319 149.828 259.439 150.021 259.439 150.234C259.445 150.44 259.326 150.626 259.133 150.719Z" fill="white"/>
<path d="M324.099 219.4L322.265 220.291C321.234 220.79 320.437 221.667 320.038 222.737L319.001 225.496C318.961 225.596 318.888 225.669 318.788 225.709C318.602 225.775 318.389 225.682 318.316 225.496L317.279 222.737C316.88 221.667 316.083 220.796 315.052 220.298L313.217 219.407C313.144 219.367 313.085 219.307 313.045 219.234C312.958 219.048 313.031 218.835 313.217 218.742L315.052 217.851C316.083 217.353 316.88 216.475 317.279 215.405L318.316 212.646C318.356 212.573 318.416 212.507 318.489 212.474C318.675 212.38 318.908 212.46 319.001 212.646L320.038 215.398C320.437 216.469 321.234 217.346 322.258 217.845L324.093 218.735C324.219 218.795 324.299 218.928 324.299 219.068C324.299 219.214 324.219 219.34 324.099 219.4Z" fill="white"/>
<path d="M159.627 161.175L157.792 162.066C156.761 162.565 155.964 163.442 155.565 164.512L154.528 167.271C154.488 167.371 154.415 167.444 154.315 167.484C154.129 167.55 153.916 167.457 153.843 167.271L152.806 164.512C152.407 163.442 151.61 162.571 150.579 162.073L148.745 161.182C148.671 161.142 148.612 161.082 148.572 161.009C148.485 160.823 148.558 160.61 148.745 160.517L150.579 159.627C151.61 159.128 152.407 158.251 152.806 157.18L153.843 154.422C153.883 154.348 153.943 154.282 154.016 154.249C154.202 154.156 154.435 154.235 154.528 154.422L155.565 157.174C155.964 158.244 156.761 159.121 157.785 159.62L159.62 160.511C159.746 160.57 159.826 160.703 159.826 160.843C159.833 160.989 159.753 161.116 159.627 161.175Z" fill="white"/>
<path d="M63.8834 76.3732L59.3033 78.6068C56.7374 79.8499 54.7431 82.0435 53.7393 84.7158L51.1402 91.6159C51.0471 91.8619 50.8543 92.0547 50.6084 92.1544C50.1364 92.3272 49.6046 92.0945 49.4251 91.6159L46.8326 84.7158C45.8288 82.0435 43.8412 79.8698 41.2686 78.6267L36.6885 76.3998C36.5024 76.3067 36.3561 76.1605 36.2631 75.9744C36.0437 75.5157 36.2365 74.9706 36.6885 74.7512L41.2686 72.5177C43.8412 71.2746 45.8288 69.0809 46.8326 66.4086L49.4317 59.5085C49.5248 59.3224 49.6777 59.1629 49.8638 59.0764C50.3358 58.8438 50.9075 59.0366 51.1402 59.5085L53.7393 66.3953C54.7364 69.0743 56.7307 71.2613 59.2966 72.511L63.8768 74.7379C64.1958 74.8908 64.3953 75.2166 64.3953 75.5689C64.3953 75.9079 64.1958 76.2203 63.8834 76.3732Z" fill="black"/>
<path d="M88.917 41.6335L86.1649 42.9763C84.6227 43.7208 83.4262 45.037 82.8279 46.6457L81.2724 50.7871C81.2192 50.9333 81.0996 51.053 80.9533 51.1062C80.6675 51.2125 80.3484 51.0663 80.242 50.7871L78.6865 46.6457C78.0816 45.0436 76.8917 43.7407 75.3495 42.9896L72.5974 41.6534C72.4844 41.6002 72.398 41.5072 72.3448 41.4008C72.2119 41.1283 72.3249 40.7959 72.5974 40.6629L75.3495 39.3268C76.8917 38.5823 78.0882 37.2661 78.6865 35.6574L80.242 31.516C80.2952 31.403 80.3883 31.3099 80.5013 31.2567C80.7871 31.1171 81.1261 31.2368 81.2657 31.516L82.8213 35.6441C83.4195 37.2528 84.6161 38.5623 86.1583 39.3135L88.9104 40.6496C89.1031 40.7427 89.2228 40.9355 89.2228 41.1482C89.2228 41.3543 89.1032 41.5471 88.917 41.6335Z" fill="black"/>
<path d="M235.681 26.5966H190.379C188.205 26.5966 186.437 24.835 186.437 22.6547V3.94197C186.437 1.76824 188.198 0 190.379 0H235.681C237.855 0 239.623 1.76159 239.623 3.94197V22.6547C239.623 24.835 237.862 26.5966 235.681 26.5966Z" fill="#F032FF"/>
<path d="M193.091 6.6543H195.969V17.7224H201.806V19.9493H193.091V6.6543Z" fill="white"/>
<path d="M204.704 6.6543H207.583V19.9493H204.704V6.6543Z" fill="white"/>
<path d="M209.65 6.6543H212.668L214.576 13.1223C215.021 14.598 215.314 15.9275 215.779 17.4166H215.879C216.324 15.9275 216.656 14.598 217.102 13.1223L218.97 6.6543H221.888L217.474 19.9493H214.051L209.65 6.6543Z" fill="white"/>
<path d="M223.928 6.6543H232.763V8.86126H226.807V11.9324H231.865V14.1593H226.807V17.7157H232.975V19.9426H223.928V6.6543Z" fill="white"/>
<defs>
<linearGradient id="paint0_linear_11039_796" x1="45.2461" y1="352.302" x2="417.714" y2="137.258" gradientUnits="userSpaceOnUse">
<stop stop-color="#00C8FF"/>
<stop offset="1" stop-color="#F032FF"/>
</linearGradient>
<linearGradient id="paint1_linear_11039_796" x1="323.085" y1="271.338" x2="425.835" y2="212.016" gradientUnits="userSpaceOnUse">
<stop stop-color="#00C8FF"/>
<stop offset="1" stop-color="#F032FF"/>
</linearGradient>
<linearGradient id="paint2_linear_11039_796" x1="166.858" y1="189.92" x2="236.279" y2="189.92" gradientUnits="userSpaceOnUse">
<stop stop-color="#00C8FF"/>
<stop offset="1" stop-color="#F032FF"/>
</linearGradient>
<linearGradient id="paint3_linear_11039_796" x1="1.62528" y1="187.225" x2="93.3527" y2="187.225" gradientUnits="userSpaceOnUse">
<stop stop-color="#00C8FF"/>
<stop offset="1" stop-color="#F032FF"/>
</linearGradient>
<linearGradient id="paint4_linear_11039_796" x1="7.3951" y1="168.642" x2="144.184" y2="168.642" gradientUnits="userSpaceOnUse">
<stop stop-color="#00C8FF"/>
<stop offset="1" stop-color="#F032FF"/>
</linearGradient>
<linearGradient id="paint5_linear_11039_796" x1="236.246" y1="96.4754" x2="319.447" y2="57.6798" gradientUnits="userSpaceOnUse">
<stop stop-color="#00C8FF"/>
<stop offset="1" stop-color="#F032FF"/>
</linearGradient>
</defs>
</svg>
