<svg width="22" height="22" viewBox="0 0 22 22" fill="none" xmlns="http://www.w3.org/2000/svg">
<path d="M16.384 1.00842H5.61602C3.07135 1.00842 1.00848 3.07129 1.00848 5.61596V16.3839C1.00848 18.9286 3.07135 20.9915 5.61602 20.9915H16.384C18.9287 20.9915 20.9915 18.9286 20.9915 16.3839V5.61596C20.9915 3.07129 18.9287 1.00842 16.384 1.00842Z" fill="url(#paint0_linear_9216_19864)"/>
<path d="M14.2227 4.95087C14.9813 4.95392 15.7079 5.25663 16.2443 5.79305C16.7808 6.32947 17.0835 7.05613 17.0865 7.81474V14.1853C17.0835 14.9439 16.7808 15.6705 16.2443 16.207C15.7079 16.7434 14.9813 17.0461 14.2227 17.0492H7.77735C7.01875 17.0461 6.29209 16.7434 5.75567 16.207C5.21925 15.6705 4.91654 14.9439 4.91349 14.1853V7.81474C4.91654 7.05613 5.21925 6.32947 5.75567 5.79305C6.29209 5.25663 7.01875 4.95392 7.77735 4.95087H14.2227ZM14.2227 3.61884H7.77735C5.4695 3.61884 3.58102 5.50946 3.58102 7.81517V14.1853C3.58102 16.4931 5.47165 18.3816 7.77735 18.3816H14.2227C16.5305 18.3816 18.419 16.491 18.419 14.1853V7.81474C18.419 5.50688 16.5305 3.61841 14.2227 3.61841V3.61884Z" fill="white"/>
<path d="M11 8.51343C11.4918 8.51343 11.9726 8.65926 12.3815 8.9325C12.7904 9.20573 13.1091 9.59408 13.2973 10.0484C13.4855 10.5028 13.5348 11.0028 13.4388 11.4851C13.3429 11.9675 13.1061 12.4106 12.7583 12.7583C12.4105 13.1061 11.9675 13.3429 11.4851 13.4389C11.0028 13.5348 10.5028 13.4856 10.0484 13.2973C9.59405 13.1091 9.2057 12.7904 8.93247 12.3815C8.65924 11.9726 8.5134 11.4918 8.5134 11C8.5142 10.3408 8.77643 9.70877 9.24259 9.24262C9.70874 8.77646 10.3408 8.51422 11 8.51343ZM11 7.1814C10.2447 7.1814 9.50645 7.40536 8.87848 7.82495C8.25051 8.24455 7.76107 8.84094 7.47204 9.5387C7.18302 10.2365 7.1074 11.0043 7.25474 11.745C7.40208 12.4857 7.76577 13.1662 8.29982 13.7002C8.83386 14.2343 9.51428 14.5979 10.255 14.7453C10.9958 14.8926 11.7636 14.817 12.4613 14.528C13.1591 14.239 13.7555 13.7495 14.1751 13.1215C14.5947 12.4936 14.8186 11.7553 14.8186 11C14.8186 9.98726 14.4163 9.01598 13.7002 8.29985C12.984 7.58372 12.0128 7.1814 11 7.1814Z" fill="white"/>
<path d="M14.902 7.9191C15.402 7.9191 15.8073 7.51376 15.8073 7.01375C15.8073 6.51374 15.402 6.1084 14.902 6.1084C14.402 6.1084 13.9966 6.51374 13.9966 7.01375C13.9966 7.51376 14.402 7.9191 14.902 7.9191Z" fill="white"/>
<defs>
<linearGradient id="paint0_linear_9216_19864" x1="14.1054" y1="21.8302" x2="7.89466" y2="0.169672" gradientUnits="userSpaceOnUse">
<stop stop-color="#FFDB73"/>
<stop offset="0.08" stop-color="#FDAD4E"/>
<stop offset="0.15" stop-color="#FB832E"/>
<stop offset="0.19" stop-color="#FA7321"/>
<stop offset="0.23" stop-color="#F6692F"/>
<stop offset="0.37" stop-color="#E84A5A"/>
<stop offset="0.48" stop-color="#E03675"/>
<stop offset="0.55" stop-color="#DD2F7F"/>
<stop offset="0.68" stop-color="#B43D97"/>
<stop offset="0.97" stop-color="#4D60D4"/>
<stop offset="1" stop-color="#4264DB"/>
</linearGradient>
</defs>
</svg>
