<svg width="36" height="30" viewBox="0 0 36 30" fill="none" xmlns="http://www.w3.org/2000/svg">
<path d="M17.9333 14.5992L9.83021 0.864389L9.66384 0.580804C9.47565 0.261771 9.05564 0 8.73108 0H0.341661C0.0171024 0 -0.0974481 0.259044 0.0907411 0.580804L0.745313 1.68788L8.36016 14.5992C8.54835 14.9155 8.96836 15.1773 9.29292 15.1773H17.6823C18.0069 15.1773 18.1187 14.9155 17.9333 14.5992Z" fill="#00C8FF"/>
<path fill-rule="evenodd" clip-rule="evenodd" d="M11.3414 25.2926H2.95201C2.62745 25.2926 2.5129 25.0335 2.70109 24.7145L11.966 9.01098C12.1542 8.69195 12.5742 8.43018 12.8988 8.43018H14.2952L17.9335 14.5981C18.029 14.7618 18.0481 14.909 17.9962 15.0126L12.2742 24.7145C12.086 25.0308 11.666 25.2926 11.3414 25.2926Z" fill="#F032FF"/>
<path fill-rule="evenodd" clip-rule="evenodd" d="M8.5374 14.8234L12.6394 7.87007C12.8276 7.55376 13.2476 7.29199 13.5721 7.29199H13.6212L17.9332 14.6025L17.9523 14.6352L17.9578 14.6434V14.6516V14.657V14.6597V14.6625V14.6652V14.6707V14.6734V14.6788L17.9632 14.6843V14.6897V14.6979H17.9687V14.7061L17.9714 14.7197V14.7252H17.9741V14.7334L17.9796 14.7525V14.7579C17.985 14.777 17.9878 14.7934 17.9932 14.8097V14.8315C17.9987 14.8452 17.9987 14.8588 17.9987 14.8752V14.8888V14.8997V14.9052V14.9106V14.9161V14.9215V14.9297V14.9352C17.9987 14.9352 17.996 14.9515 17.9932 14.9597V14.9733L17.9878 14.9761V14.9842L17.9823 14.9979L17.9741 15.017L17.9496 15.0579H17.9469V15.066L17.9332 15.0797L17.9278 15.0879L17.9223 15.0933H17.9196L17.9059 15.1097H17.9005L17.8978 15.1151C17.8896 15.1233 17.8787 15.1288 17.8705 15.1342L17.865 15.1397H17.8596C17.8596 15.1397 17.835 15.1533 17.8214 15.1588L17.805 15.1642L17.7832 15.1697H17.7778L17.7723 15.1724H17.7614H17.7559H17.7341L17.7287 15.1751H17.7041L17.6987 15.1778H9.22197L9.21106 15.1751H9.1947L9.1756 15.1697H9.15651C9.14288 15.1669 9.12924 15.1615 9.1156 15.1588H9.10742L9.08833 15.1533H9.08288L9.06651 15.1451L9.04469 15.1397H9.03378L9.00923 15.126H9.00105C8.9656 15.1097 8.92742 15.096 8.89196 15.0769H8.88923L8.87014 15.066L8.8565 15.0579L8.84832 15.0524L8.83468 15.0442L8.81014 15.0306H8.80741L8.7665 15.0033L8.74195 14.987L8.72013 14.9733H8.71468C8.69013 14.9542 8.66559 14.9352 8.64377 14.9188L8.63558 14.9133L8.6274 14.9052L8.61377 14.8943H8.60831L8.58922 14.8752H8.58376L8.58104 14.8697L8.5674 14.8561L8.54285 14.8343L8.5374 14.8288L8.52922 14.8206H8.52649V14.8179L8.5374 14.8234Z" fill="black"/>
<path d="M18.0668 15.4003L26.1699 29.1351L26.3362 29.4187C26.5244 29.7377 26.9444 29.9995 27.269 29.9995H28.0599H34.9139H35.6584C35.983 29.9995 36.0975 29.7405 35.9093 29.4187L35.2548 28.3116L27.6399 15.4003C27.4517 15.084 27.0317 14.8223 26.7072 14.8223H18.3177C17.9932 14.8223 17.8814 15.084 18.0668 15.4003Z" fill="#00C8FF"/>
<path fill-rule="evenodd" clip-rule="evenodd" d="M24.6588 4.70605H33.0482C33.3728 4.70605 33.4873 4.9651 33.2991 5.28413L24.0342 20.9877C23.846 21.3067 23.426 21.5685 23.1014 21.5685H21.705L18.0667 15.4005C17.9712 15.2369 17.9522 15.0896 18.004 14.986L23.726 5.28413C23.9142 4.96783 24.3342 4.70605 24.6588 4.70605Z" fill="#F032FF"/>
<path fill-rule="evenodd" clip-rule="evenodd" d="M27.4624 15.177L23.3604 22.1302C23.1722 22.4465 22.7522 22.7083 22.4276 22.7083H22.3785L18.0666 15.3978L18.0475 15.3651L18.042 15.3569V15.3487V15.3433V15.3406V15.3378V15.3351V15.3296V15.3269V15.3215L18.0366 15.316V15.3106V15.3024H18.0311V15.2942L18.0284 15.2806V15.2751H18.0256V15.2669L18.0202 15.2478V15.2424C18.0147 15.2233 18.012 15.2069 18.0066 15.1906V15.1688C18.0011 15.1551 18.0011 15.1415 18.0011 15.1251V15.1115V15.1006V15.0951V15.0897V15.0842V15.0788V15.0761V15.0706V15.0652C18.0011 15.0652 18.0038 15.0515 18.0066 15.0433V15.0297L18.012 15.027V15.0188L18.0175 15.0052L18.0256 14.9861L18.0502 14.9452H18.0529V14.937L18.0666 14.9234L18.072 14.9152L18.0775 14.9097H18.0802L18.0938 14.8934H18.0993L18.102 14.8879C18.1102 14.8797 18.1211 14.8743 18.1293 14.8688L18.1347 14.8634H18.1402C18.1402 14.8634 18.1647 14.8497 18.1784 14.8443L18.1947 14.8388L18.2166 14.8334H18.222L18.2275 14.8306H18.2384H18.2438H18.2657L18.2711 14.8279H18.2957L18.3011 14.8252H26.7178H26.7451H26.7751L26.786 14.8279H26.8024L26.8214 14.8334H26.8405C26.8542 14.8361 26.8678 14.8416 26.8814 14.8443H26.8896L26.9087 14.8497H26.9142L26.9305 14.8579L26.9524 14.8634H26.9633L26.9878 14.877H26.996C27.0315 14.8934 27.0696 14.907 27.1051 14.9261H27.1078L27.1269 14.937L27.1406 14.9452L27.1487 14.9506L27.1624 14.9588L27.1869 14.9724H27.1896L27.2306 14.9997L27.2551 15.0161L27.2769 15.0297H27.2824C27.3069 15.0488 27.3315 15.0679 27.3533 15.0842L27.3615 15.0897L27.3697 15.0979L27.3833 15.1088H27.3887L27.4078 15.1279H27.4133L27.416 15.1333L27.4297 15.147L27.4542 15.1688L27.4597 15.1742L27.4678 15.1824H27.4706V15.1851L27.4624 15.177Z" fill="black"/>
</svg>
