<svg width="20" height="20" viewBox="0 0 20 20" fill="none" xmlns="http://www.w3.org/2000/svg">
<g clip-path="url(#clip0_10570_11924)">
<path d="M10 19.6875C15.3503 19.6875 19.6875 15.3503 19.6875 10C19.6875 4.64974 15.3503 0.3125 10 0.3125C4.64974 0.3125 0.3125 4.64974 0.3125 10C0.3125 15.3503 4.64974 19.6875 10 19.6875Z" fill="white"/>
<path d="M17.7741 15.7734C16.8706 14.5638 15.6974 13.5816 14.3478 12.9048C12.9981 12.2281 11.5093 11.8755 9.99948 11.875C8.4897 11.8745 7.00061 12.2262 5.65056 12.9021C4.30051 13.578 3.12672 14.5595 2.22247 15.7685C3.12212 16.9837 4.294 17.9711 5.64413 18.6517C6.99426 19.3323 8.48507 19.687 9.99703 19.6875C11.509 19.688 13 19.3342 14.3506 18.6544C15.7011 17.9747 16.8736 16.988 17.7741 15.7734Z" fill="#7008E7"/>
<path d="M10 10.625C12.0711 10.625 13.75 8.94607 13.75 6.875C13.75 4.80393 12.0711 3.125 10 3.125C7.92893 3.125 6.25 4.80393 6.25 6.875C6.25 8.94607 7.92893 10.625 10 10.625Z" fill="#7008E7"/>
</g>
<defs>
<clipPath id="clip0_10570_11924">
<rect width="20" height="20" fill="white"/>
</clipPath>
</defs>
</svg>
