<svg width="26" height="26" viewBox="0 0 26 26" fill="none" xmlns="http://www.w3.org/2000/svg">
<path d="M12.5741 11.6931C12.4232 11.6931 12.2723 11.6479 12.1426 11.5571L7.45582 7.81379C6.7293 7.30537 6.38007 6.62409 6.32498 5.73902C6.26988 4.85401 6.04558 4.80653 6.7034 4.21188C7.36117 3.61733 8.25116 2.58551 9.11337 2.72409C9.21641 2.74064 9.31919 2.76283 9.42136 2.79076C10.3788 3.05239 11.1269 3.7743 11.4225 4.72182L13.2925 10.7164C13.3883 11.0237 13.2781 11.358 13.0182 11.548C12.8861 11.6447 12.7301 11.6931 12.5741 11.6931ZM8.64812 4.19136C8.31098 4.19136 7.98766 4.31547 7.72547 4.55247C7.40951 4.83806 7.24346 5.24563 7.26991 5.67072C7.29637 6.09576 7.51168 6.47962 7.8606 6.72377L11.1991 9.06001L10.6792 5.17007C10.5447 4.73894 9.53694 4.41566 9.11607 4.27083C9.08611 4.26053 9.05559 4.25113 9.02456 4.24265C8.89888 4.20827 8.77253 4.19136 8.64812 4.19136Z" fill="#DF646E"/>
<path d="M12.9818 11.5482C12.7219 11.3582 13.3617 11.0239 13.4575 10.7166L15.2606 4.72202C15.5562 3.77449 15.5365 3.3918 16.4939 3.13018C16.9026 3.01856 17.4058 2.65928 17.8086 2.72469C18.3494 2.81254 18.8617 3.05457 19.2838 3.43603C19.9417 4.03063 20.2873 4.87929 20.2322 5.7643C20.1771 6.64937 19.7288 7.44851 19.0023 7.95699L13.8574 11.5573C13.7278 11.648 13.5768 11.6933 13.426 11.6933C13.27 11.6932 13.114 11.6448 12.9818 11.5482ZM16.9754 4.2427C16.5087 4.37026 16.1584 4.70826 16.0143 5.17011L14.8009 9.06006L18.1394 6.72382C18.4883 6.47961 18.7036 6.0958 18.7301 5.67077C18.7566 5.24568 18.5905 4.83811 18.2745 4.55251C18.0123 4.31552 17.689 4.19141 17.3519 4.19141C17.2275 4.19146 17.1012 4.20837 16.9754 4.2427Z" fill="#DF646E"/>
<path d="M10.9073 5.17006C10.7633 4.70821 10.413 4.37016 9.94626 4.24264C9.82048 4.20827 9.69413 4.19141 9.56972 4.19141C9.41387 4.19141 9.26132 4.21908 9.11609 4.27103C9.53696 4.41586 9.85125 4.73898 9.98572 5.17011L11.0666 8.62862L12.1208 9.06006L10.9073 5.17006Z" fill="#DC4955"/>
<path d="M7.91935 7.95692C7.19282 7.4485 6.74457 6.6493 6.68942 5.76423C6.63433 4.87922 6.98005 4.03056 7.63787 3.43597C8.05991 3.0545 8.57239 2.81323 9.11316 2.72538C8.251 2.58685 7.37401 2.84147 6.71624 3.43597C6.05837 4.03056 5.7127 4.87922 5.7678 5.76423C5.82289 6.6493 6.27119 7.44845 6.99772 7.95692L12.1426 11.5572C12.2723 11.648 12.4232 11.6932 12.5741 11.6932C12.7301 11.6932 12.8861 11.6448 13.0182 11.5482C13.0236 11.5443 13.0284 11.5399 13.0337 11.5359L7.91935 7.95692Z" fill="#DC4955"/>
<path d="M13.6291 10.7166L15.4991 4.72199C15.7947 3.77447 16.5427 3.05256 17.5002 2.79094C17.6024 2.76301 17.7053 2.74203 17.8084 2.72548C17.4057 2.66002 16.9873 2.67932 16.5786 2.79094C15.6212 3.05256 14.8731 3.77447 14.5775 4.72199L12.7075 10.7166C12.6117 11.0239 12.7219 11.3582 12.9818 11.5482C13.1139 11.6448 13.2699 11.6932 13.4259 11.6932C13.5768 11.6932 13.7277 11.6479 13.8574 11.5572L13.8879 11.5358C13.6394 11.344 13.5352 11.0175 13.6291 10.7166Z" fill="#DC4955"/>
<path d="M23.1066 15.9473C23.1066 14.6268 23.9911 13.513 25.2 13.1659C25.6748 13.0296 26 12.5925 26 12.0984V10.0954C26 9.25998 25.3228 8.58276 24.4874 8.58276H3.0926C2.2572 8.58276 1.52539 9.25998 1.52539 10.0954V21.7992C1.52539 22.6346 2.2572 23.3118 3.0926 23.3118H24.4874C25.3228 23.3118 26 22.6346 26 21.7992V19.7962C26 19.3021 25.6748 18.865 25.2 18.7287C23.9911 18.3816 23.1066 17.2677 23.1066 15.9473Z" fill="#7008E7"/>
<path d="M1.8008 21.7992V10.0954C1.8008 9.25998 2.47802 8.58276 3.31343 8.58276H1.51262C0.677219 8.58276 0 9.25998 0 10.0954V21.7992C0 22.6346 0.677219 23.3118 1.51262 23.3118H3.31348C2.47807 23.3118 1.8008 22.6346 1.8008 21.7992Z" fill="#3D0F91"/>
<path d="M18.9026 11.3909C18.6859 11.3909 18.5103 11.2152 18.5103 10.9986V10.3174C18.5103 10.1007 18.6859 9.92505 18.9026 9.92505C19.1193 9.92505 19.2949 10.1007 19.2949 10.3174V10.9986C19.2949 11.2152 19.1193 11.3909 18.9026 11.3909Z" fill="#F8F3FF"/>
<path d="M18.9026 14.0357C18.6859 14.0357 18.5103 13.86 18.5103 13.6433V12.9622C18.5103 12.7455 18.6859 12.5698 18.9026 12.5698C19.1193 12.5698 19.2949 12.7455 19.2949 12.9622V13.6433C19.2949 13.86 19.1193 14.0357 18.9026 14.0357Z" fill="#F8F3FF"/>
<path d="M18.9026 16.6802C18.6859 16.6802 18.5103 16.5046 18.5103 16.2879V15.6067C18.5103 15.39 18.6859 15.2144 18.9026 15.2144C19.1193 15.2144 19.2949 15.39 19.2949 15.6067V16.2879C19.2949 16.5046 19.1193 16.6802 18.9026 16.6802Z" fill="#F8F3FF"/>
<path d="M18.9026 19.325C18.6859 19.325 18.5103 19.1493 18.5103 18.9326V18.2515C18.5103 18.0348 18.6859 17.8591 18.9026 17.8591C19.1193 17.8591 19.2949 18.0348 19.2949 18.2515V18.9326C19.2949 19.1493 19.1193 19.325 18.9026 19.325Z" fill="#F8F3FF"/>
<path d="M18.9026 21.9695C18.6859 21.9695 18.5103 21.7939 18.5103 21.5772V20.896C18.5103 20.6793 18.6859 20.5037 18.9026 20.5037C19.1193 20.5037 19.2949 20.6793 19.2949 20.896V21.5772C19.2949 21.7938 19.1193 21.9695 18.9026 21.9695Z" fill="#F8F3FF"/>
<path d="M6.63874 15.0202C5.75225 15.0202 5.03101 14.2989 5.03101 13.4124C5.03101 12.5259 5.75225 11.8047 6.63874 11.8047C7.52528 11.8047 8.24647 12.5259 8.24647 13.4124C8.24653 14.2989 7.52528 15.0202 6.63874 15.0202ZM6.63874 12.5894C6.18491 12.5894 5.81573 12.9586 5.81573 13.4124C5.81573 13.8662 6.18496 14.2354 6.63874 14.2354C7.09257 14.2354 7.4618 13.8662 7.4618 13.4124C7.4618 12.9585 7.09262 12.5894 6.63874 12.5894Z" fill="#F8F3FF"/>
<path d="M11.7087 20.09C10.8222 20.09 10.101 19.3687 10.101 18.4822C10.101 17.5958 10.8222 16.8745 11.7087 16.8745C12.5952 16.8745 13.3164 17.5958 13.3164 18.4822C13.3164 19.3687 12.5952 20.09 11.7087 20.09ZM11.7087 17.6592C11.2549 17.6592 10.8857 18.0284 10.8857 18.4822C10.8857 18.936 11.2549 19.3053 11.7087 19.3053C12.1625 19.3053 12.5317 18.936 12.5317 18.4822C12.5317 18.0284 12.1625 17.6592 11.7087 17.6592Z" fill="#F8F3FF"/>
<path d="M6.48248 20.2257C6.40545 20.2257 6.3276 20.203 6.2595 20.1558C6.08131 20.0324 6.03693 19.7881 6.16027 19.6099L11.5421 11.838C11.6655 11.6598 11.9099 11.6154 12.0881 11.7388C12.2663 11.8621 12.3106 12.1065 12.1873 12.2847L6.8054 20.0566C6.72923 20.1667 6.60689 20.2257 6.48248 20.2257Z" fill="#F8F3FF"/>
</svg>
