<svg width="22" height="22" viewBox="0 0 22 22" fill="none" xmlns="http://www.w3.org/2000/svg">
<g clip-path="url(#clip0_7032_22988)">
<path d="M21.1693 9.08747L12.1957 9.08704C11.7995 9.08704 11.4783 9.40818 11.4783 9.80444V12.6711C11.4783 13.0673 11.7995 13.3885 12.1957 13.3885H17.2491C16.6957 14.8246 15.6629 16.0272 14.3452 16.7914L16.5 20.5215C19.9565 18.5224 22 15.0149 22 11.0885C22 10.5295 21.9588 10.1298 21.8764 9.67979C21.8137 9.33789 21.5169 9.08747 21.1693 9.08747Z" fill="#167EE6"/>
<path d="M11 17.6956C8.52699 17.6956 6.36806 16.3444 5.20855 14.345L1.47861 16.4949C3.37675 19.7846 6.93259 22 11 22C12.9953 22 14.8781 21.4627 16.5 20.5265V20.5214L14.3453 16.7913C13.3596 17.3629 12.2191 17.6956 11 17.6956Z" fill="#12B347"/>
<path d="M16.5 20.5265V20.5214L14.3452 16.7913C13.3596 17.3629 12.2192 17.6956 11 17.6956V22C12.9953 22 14.8782 21.4627 16.5 20.5265Z" fill="#0F993E"/>
<path d="M4.30435 11C4.30435 9.78103 4.63702 8.6406 5.20854 7.65503L1.4786 5.50513C0.537195 7.12191 0 8.99956 0 11C0 13.0005 0.537195 14.8781 1.4786 16.4949L5.20854 14.345C4.63702 13.3594 4.30435 12.219 4.30435 11Z" fill="#FFD500"/>
<path d="M11 4.30435C12.6127 4.30435 14.094 4.87738 15.251 5.83056C15.5364 6.06568 15.9513 6.04871 16.2128 5.78725L18.2439 3.75611C18.5406 3.45946 18.5194 2.97387 18.2025 2.69895C16.264 1.0172 13.7417 0 11 0C6.93259 0 3.37675 2.21534 1.47861 5.50511L5.20855 7.65501C6.36806 5.65555 8.52699 4.30435 11 4.30435Z" fill="#FF4B26"/>
<path d="M15.251 5.83056C15.5364 6.06568 15.9513 6.04871 16.2128 5.78725L18.2439 3.75611C18.5405 3.45946 18.5194 2.97387 18.2025 2.69895C16.264 1.01716 13.7417 0 11 0V4.30435C12.6126 4.30435 14.094 4.87738 15.251 5.83056Z" fill="#D93F21"/>
</g>
<defs>
<clipPath id="clip0_7032_22988">
<rect width="22" height="22" fill="white"/>
</clipPath>
</defs>
</svg>
