<svg width="22" height="22" viewBox="0 0 22 22" fill="none" xmlns="http://www.w3.org/2000/svg">
<g clip-path="url(#clip0_7032_23001)">
<path d="M19 0H3C1.34315 0 0 1.34315 0 3V19C0 20.6569 1.34315 22 3 22H19C20.6569 22 22 20.6569 22 19V3C22 1.34315 20.6569 0 19 0Z" fill="#39CD00"/>
<path d="M17.875 10.25C17.8652 10.3897 17.8473 10.5287 17.8213 10.6663C17.7343 11.193 17.5562 11.7006 17.295 12.1663C17.17 12.3888 16.5688 13.2338 16.385 13.4563C15.3688 14.68 13.6663 16.0925 10.8212 17.4663C10.7612 17.4952 10.6946 17.5077 10.6281 17.5024C10.5617 17.497 10.4979 17.4741 10.4432 17.4359C10.3886 17.3977 10.3452 17.3456 10.3173 17.2851C10.2895 17.2245 10.2784 17.1576 10.285 17.0913L10.4288 15.8C10.4396 15.7012 10.4109 15.6022 10.3487 15.5246C10.2866 15.447 10.1963 15.3972 10.0975 15.3863C9.15104 15.2916 8.22908 15.0287 7.375 14.61C5.425 13.6463 4.125 11.925 4.125 9.96375C4.125 6.94375 7.2025 4.5 11 4.5C12.9075 4.5 14.6325 5.125 15.875 6.11625C17.0387 7.0475 17.7838 8.31125 17.8638 9.71375C17.8771 9.89217 17.8808 10.0712 17.875 10.25Z" fill="white"/>
<path d="M9.10501 11.1737C9.13827 11.2062 9.1646 11.2451 9.18243 11.2881C9.20026 11.3311 9.20922 11.3772 9.20876 11.4237C9.20893 11.4699 9.19996 11.5157 9.18238 11.5585C9.16481 11.6013 9.13896 11.6401 9.10633 11.6729C9.07369 11.7056 9.03492 11.7316 8.99222 11.7493C8.94952 11.7671 8.90374 11.7762 8.85751 11.7762H7.45126C7.35788 11.7759 7.26841 11.7386 7.20237 11.6726C7.13634 11.6066 7.09909 11.5171 7.09876 11.4237V8.76745C7.09845 8.72096 7.10747 8.67487 7.1253 8.63193C7.14312 8.58899 7.16937 8.55006 7.20251 8.51745C7.25171 8.46809 7.31448 8.43449 7.38284 8.42092C7.45119 8.40734 7.52204 8.4144 7.58636 8.4412C7.65069 8.46801 7.70559 8.51334 7.74408 8.57143C7.78257 8.62953 7.80291 8.69776 7.80251 8.76745V11.0712H8.85751C8.90353 11.0708 8.94914 11.0797 8.99166 11.0973C9.03417 11.115 9.07272 11.1409 9.10501 11.1737Z" fill="#00C200"/>
<path d="M10.25 8.69115V11.4999C10.2497 11.5727 10.2206 11.6425 10.1691 11.694C10.1176 11.7455 10.0478 11.7746 9.97501 11.7749H9.81751C9.74458 11.7749 9.67463 11.7459 9.62306 11.6944C9.57148 11.6428 9.54251 11.5728 9.54251 11.4999V8.69115C9.54251 8.65504 9.54962 8.61928 9.56344 8.58591C9.57726 8.55255 9.59752 8.52223 9.62306 8.49669C9.64859 8.47116 9.67891 8.4509 9.71227 8.43708C9.74564 8.42326 9.7814 8.41615 9.81751 8.41615H9.97126C10.0076 8.41582 10.0437 8.42268 10.0775 8.43634C10.1112 8.44999 10.1419 8.47018 10.1678 8.49573C10.1937 8.52128 10.2143 8.5517 10.2284 8.58524C10.2425 8.61877 10.2498 8.65476 10.25 8.69115Z" fill="#00C200"/>
<path d="M13.515 8.76743V11.4087C13.5151 11.5037 13.4782 11.595 13.4122 11.6633C13.3462 11.7317 13.2562 11.7717 13.1613 11.7749C13.0723 11.7735 12.9871 11.7387 12.9225 11.6774C12.91 11.6674 12.4375 11.0524 12.0363 10.5349C11.7363 10.1487 11.4763 9.81118 11.4763 9.81118V11.4224C11.4765 11.4907 11.4568 11.5576 11.4196 11.6149C11.3825 11.6722 11.3294 11.7174 11.2669 11.745C11.2044 11.7726 11.1353 11.7813 11.0679 11.7702C11.0005 11.7591 10.9378 11.7286 10.8875 11.6824C10.8512 11.6496 10.8222 11.6094 10.8024 11.5646C10.7826 11.5199 10.7724 11.4714 10.7725 11.4224V8.78244C10.7714 8.68963 10.8058 8.59991 10.8689 8.53177C10.9319 8.46363 11.0187 8.42226 11.1113 8.41618C11.1637 8.41533 11.2156 8.42609 11.2634 8.44771C11.3112 8.46932 11.3536 8.50124 11.3875 8.54118C11.4025 8.55868 12.1288 9.50368 12.5375 10.0412C12.7 10.2512 12.8125 10.3987 12.8125 10.3987V8.77369C12.8132 8.68073 12.8504 8.59177 12.9161 8.52604C12.9819 8.46031 13.0708 8.42309 13.1638 8.42243C13.2559 8.42242 13.3443 8.45857 13.41 8.52309C13.4757 8.58762 13.5134 8.67536 13.515 8.76743Z" fill="#00C200"/>
<path d="M14.75 10.4462V11.0712H15.8038C15.8517 11.0683 15.8998 11.0753 15.945 11.0917C15.9901 11.1081 16.0315 11.1335 16.0665 11.1665C16.1014 11.1994 16.1293 11.2392 16.1484 11.2833C16.1674 11.3274 16.1772 11.375 16.1772 11.423C16.1772 11.4711 16.1674 11.5186 16.1484 11.5628C16.1293 11.6069 16.1014 11.6466 16.0665 11.6796C16.0315 11.7125 15.9901 11.738 15.945 11.7544C15.8998 11.7708 15.8517 11.7778 15.8038 11.7749H14.3938C14.3005 11.7746 14.2112 11.7373 14.1453 11.6712C14.0795 11.6051 14.0425 11.5157 14.0425 11.4224V8.7674C14.0428 8.67435 14.08 8.5852 14.1458 8.5194C14.2116 8.45359 14.3007 8.41648 14.3938 8.41615H15.8C15.848 8.41329 15.896 8.42027 15.9412 8.43666C15.9864 8.45305 16.0277 8.47851 16.0627 8.51146C16.0977 8.54442 16.1256 8.58418 16.1446 8.6283C16.1637 8.67242 16.1735 8.71997 16.1735 8.76803C16.1735 8.81608 16.1637 8.86364 16.1446 8.90776C16.1256 8.95188 16.0977 8.99164 16.0627 9.02459C16.0277 9.05755 15.9864 9.083 15.9412 9.09939C15.896 9.11578 15.848 9.12276 15.8 9.1199H14.75V9.7449H15.8038C15.8969 9.7449 15.9863 9.78191 16.0521 9.84778C16.118 9.91365 16.155 10.003 16.155 10.0962C16.155 10.1893 16.118 10.2787 16.0521 10.3445C15.9863 10.4104 15.8969 10.4474 15.8038 10.4474L14.75 10.4462Z" fill="#00C200"/>
</g>
<defs>
<clipPath id="clip0_7032_23001">
<rect width="22" height="22" fill="white"/>
</clipPath>
</defs>
</svg>
