<svg width="20" height="20" viewBox="0 0 20 20" fill="none" xmlns="http://www.w3.org/2000/svg">
<path d="M4.79167 2.91659V9.99993C4.79045 10.1282 4.74982 10.2529 4.67528 10.3573C4.60074 10.4616 4.49591 10.5405 4.375 10.5833C4.30869 10.6098 4.23808 10.6239 4.16667 10.6249H1.66667C1.50158 10.6228 1.34386 10.5562 1.22711 10.4395C1.11037 10.3227 1.04382 10.165 1.04167 9.99993V2.91659C1.04098 2.43837 1.22386 1.97812 1.55258 1.63079C1.88131 1.28346 2.3308 1.07555 2.80833 1.04993H2.91667C3.41251 1.04992 3.88816 1.24632 4.23955 1.59615C4.59095 1.94598 4.78946 2.42076 4.79167 2.91659Z" fill="#7008E7"/>
<path d="M17.2917 5.83329V17.3166C17.2916 17.5689 17.226 17.8169 17.1014 18.0363C16.9768 18.2557 16.7974 18.439 16.5808 18.5683C16.3641 18.6976 16.1176 18.7685 15.8654 18.7741C15.6132 18.7796 15.3638 18.7196 15.1417 18.6L14.875 18.45C14.5485 18.2139 14.1526 18.0937 13.75 18.1083C13.3411 18.0949 12.9395 18.2181 12.6083 18.4583C12.0788 18.7985 11.4627 18.9794 10.8333 18.9794C10.2039 18.9794 9.58782 18.7985 9.05834 18.4583C8.72427 18.2249 8.32402 18.1051 7.91667 18.1166C7.51183 18.1045 7.11404 18.2245 6.78334 18.4583L6.525 18.6083C6.30288 18.728 6.05351 18.7879 5.80127 18.7824C5.54902 18.7769 5.30253 18.706 5.08589 18.5766C4.86924 18.4473 4.68985 18.264 4.56525 18.0446C4.44065 17.8252 4.37509 17.5773 4.375 17.325V2.70829C4.37577 2.28306 4.21397 1.87361 3.92272 1.56377C3.63147 1.25393 3.2328 1.06714 2.80833 1.04163H12.5C13.7702 1.04383 14.9877 1.54937 15.8858 2.44751C16.7839 3.34564 17.2895 4.56314 17.2917 5.83329Z" fill="#A370F7"/>
<path d="M13.75 6.45825H7.91666C7.7509 6.45825 7.59193 6.3924 7.47472 6.27519C7.35751 6.15798 7.29166 5.99901 7.29166 5.83325C7.29166 5.66749 7.35751 5.50852 7.47472 5.39131C7.59193 5.2741 7.7509 5.20825 7.91666 5.20825H13.75C13.9158 5.20825 14.0747 5.2741 14.1919 5.39131C14.3092 5.50852 14.375 5.66749 14.375 5.83325C14.375 5.99901 14.3092 6.15798 14.1919 6.27519C14.0747 6.3924 13.9158 6.45825 13.75 6.45825Z" fill="white"/>
<path d="M11.25 13.1249H7.91666C7.7509 13.1249 7.59193 13.059 7.47472 12.9418C7.35751 12.8246 7.29166 12.6656 7.29166 12.4999C7.29166 12.3341 7.35751 12.1751 7.47472 12.0579C7.59193 11.9407 7.7509 11.8749 7.91666 11.8749H11.25C11.4158 11.8749 11.5747 11.9407 11.6919 12.0579C11.8091 12.1751 11.875 12.3341 11.875 12.4999C11.875 12.6656 11.8091 12.8246 11.6919 12.9418C11.5747 13.059 11.4158 13.1249 11.25 13.1249Z" fill="white"/>
<path d="M13.75 9.79163H7.91666C7.7509 9.79163 7.59193 9.72578 7.47472 9.60857C7.35751 9.49136 7.29166 9.33239 7.29166 9.16663C7.29166 9.00087 7.35751 8.84189 7.47472 8.72468C7.59193 8.60747 7.7509 8.54163 7.91666 8.54163H13.75C13.9158 8.54163 14.0747 8.60747 14.1919 8.72468C14.3092 8.84189 14.375 9.00087 14.375 9.16663C14.375 9.33239 14.3092 9.49136 14.1919 9.60857C14.0747 9.72578 13.9158 9.79163 13.75 9.79163Z" fill="white"/>
</svg>
