<svg width="20" height="20" viewBox="0 0 20 20" fill="none" xmlns="http://www.w3.org/2000/svg">
<g clip-path="url(#clip0_10570_11901)">
<path d="M2.8125 4.0625H15.9375C16.269 4.0625 16.587 4.1942 16.8214 4.42862C17.0558 4.66304 17.1875 4.98098 17.1875 5.3125V7.8125H2.8125C2.31522 7.8125 1.83831 7.61496 1.48667 7.26333C1.13504 6.91169 0.9375 6.43478 0.9375 5.9375C0.9375 5.44022 1.13504 4.96331 1.48667 4.61167C1.83831 4.26004 2.31522 4.0625 2.8125 4.0625Z" fill="#290661"/>
<path d="M9.0625 12.1875C12.1691 12.1875 14.6875 9.6691 14.6875 6.5625C14.6875 3.4559 12.1691 0.9375 9.0625 0.9375C5.9559 0.9375 3.4375 3.4559 3.4375 6.5625C3.4375 9.6691 5.9559 12.1875 9.0625 12.1875Z" fill="#FFD54F"/>
<path d="M14.6875 6.5625C14.6874 8.05431 14.0947 9.48498 13.0398 10.5398C11.985 11.5947 10.5543 12.1874 9.0625 12.1875C8.8537 12.1871 8.64508 12.1757 8.4375 12.1531C9.8126 11.9993 11.0828 11.3441 12.0052 10.3127C12.9276 9.28133 13.4376 7.94618 13.4376 6.5625C13.4376 5.17882 12.9276 3.84367 12.0052 2.81231C11.0828 1.78094 9.8126 1.12571 8.4375 0.971875C8.64508 0.949348 8.8537 0.937874 9.0625 0.9375C10.5543 0.937616 11.985 1.53029 13.0398 2.58515C14.0947 3.64002 14.6874 5.07069 14.6875 6.5625Z" fill="#FFCA28"/>
<path d="M9.0625 10.9375C11.4787 10.9375 13.4375 8.97875 13.4375 6.5625C13.4375 4.14625 11.4787 2.1875 9.0625 2.1875C6.64625 2.1875 4.6875 4.14625 4.6875 6.5625C4.6875 8.97875 6.64625 10.9375 9.0625 10.9375Z" fill="#FFB74D"/>
<path d="M9.84375 10.8687C9.58577 10.9139 9.3244 10.9369 9.0625 10.9375C7.90218 10.9375 6.78938 10.4766 5.96891 9.65609C5.14844 8.83562 4.6875 7.72282 4.6875 6.5625C4.6875 5.40218 5.14844 4.28938 5.96891 3.46891C6.78938 2.64844 7.90218 2.1875 9.0625 2.1875C9.3244 2.18812 9.58577 2.21112 9.84375 2.25625C8.8353 2.43964 7.9232 2.97114 7.26645 3.75808C6.6097 4.54503 6.24997 5.53751 6.24997 6.5625C6.24997 7.58749 6.6097 8.57997 7.26645 9.36692C7.9232 10.1539 8.8353 10.6854 9.84375 10.8687Z" fill="#FFA726"/>
<path d="M9.375 6.25H8.75C8.58424 6.25 8.42527 6.18415 8.30806 6.06694C8.19085 5.94973 8.125 5.79076 8.125 5.625C8.125 5.45924 8.19085 5.30027 8.30806 5.18306C8.42527 5.06585 8.58424 5 8.75 5H10.3125C10.3954 5 10.4749 4.96708 10.5335 4.90847C10.5921 4.84987 10.625 4.77038 10.625 4.6875C10.625 4.60462 10.5921 4.52513 10.5335 4.46653C10.4749 4.40792 10.3954 4.375 10.3125 4.375H9.375V3.75C9.375 3.66712 9.34208 3.58763 9.28347 3.52903C9.22487 3.47042 9.14538 3.4375 9.0625 3.4375C8.97962 3.4375 8.90013 3.47042 8.84153 3.52903C8.78292 3.58763 8.75 3.66712 8.75 3.75V4.375C8.41848 4.375 8.10054 4.5067 7.86612 4.74112C7.6317 4.97554 7.5 5.29348 7.5 5.625C7.5 5.95652 7.6317 6.27446 7.86612 6.50888C8.10054 6.7433 8.41848 6.875 8.75 6.875H9.375C9.54076 6.875 9.69973 6.94085 9.81694 7.05806C9.93415 7.17527 10 7.33424 10 7.5C10 7.66576 9.93415 7.82473 9.81694 7.94194C9.69973 8.05915 9.54076 8.125 9.375 8.125H7.8125C7.72962 8.125 7.65013 8.15792 7.59153 8.21653C7.53292 8.27513 7.5 8.35462 7.5 8.4375C7.5 8.52038 7.53292 8.59987 7.59153 8.65847C7.65013 8.71708 7.72962 8.75 7.8125 8.75H9.375C9.70652 8.75 10.0245 8.6183 10.2589 8.38388C10.4933 8.14946 10.625 7.83152 10.625 7.5C10.625 7.16848 10.4933 6.85054 10.2589 6.61612C10.0245 6.3817 9.70652 6.25 9.375 6.25Z" fill="#EEEEEE"/>
<path d="M18.4375 9.0625V17.8125C18.4375 18.144 18.3058 18.462 18.0714 18.6964C17.837 18.9308 17.519 19.0625 17.1875 19.0625H2.8125C2.31522 19.0625 1.83831 18.865 1.48667 18.5133C1.13504 18.1617 0.9375 17.6848 0.9375 17.1875V5.9375C0.937897 6.43466 1.13557 6.91134 1.48711 7.26289C1.83866 7.61443 2.31534 7.8121 2.8125 7.8125H17.1875C17.519 7.8125 17.837 7.9442 18.0714 8.17862C18.3058 8.41304 18.4375 8.73098 18.4375 9.0625Z" fill="#7008E7"/>
<path d="M18.4375 9.0625V17.8125C18.4375 17.9767 18.4052 18.1392 18.3424 18.2909C18.2796 18.4426 18.1876 18.5804 18.0715 18.6965C17.9554 18.8126 17.8176 18.9046 17.6659 18.9674C17.5142 19.0302 17.3517 19.0625 17.1875 19.0625H2.8125C2.3341 19.0619 1.87404 18.8784 1.5266 18.5495C1.17915 18.2207 0.970624 17.7714 0.943748 17.2937C1.11468 17.5497 1.34617 17.7595 1.61765 17.9045C1.88913 18.0495 2.19222 18.1253 2.5 18.125H15.625C15.7892 18.125 15.9517 18.0927 16.1034 18.0299C16.2551 17.9671 16.3929 17.8751 16.509 17.759C16.6251 17.6429 16.7171 17.5051 16.7799 17.3534C16.8427 17.2017 16.875 17.0392 16.875 16.875V8.75C16.8751 8.57247 16.8372 8.39696 16.7639 8.23527C16.6906 8.07357 16.5836 7.92943 16.45 7.8125H17.1875C17.3517 7.81245 17.5142 7.84476 17.6659 7.90756C17.8176 7.97036 17.9554 8.06243 18.0715 8.17852C18.1876 8.2946 18.2796 8.43241 18.3424 8.58409C18.4052 8.73577 18.4375 8.89833 18.4375 9.0625Z" fill="#290661"/>
<path d="M15 11.25H18.4375C18.6033 11.25 18.7622 11.3158 18.8794 11.4331C18.9967 11.5503 19.0625 11.7092 19.0625 11.875V15C19.0625 15.1658 18.9967 15.3247 18.8794 15.4419C18.7622 15.5592 18.6033 15.625 18.4375 15.625H15C14.4198 15.625 13.8634 15.3945 13.4532 14.9843C13.043 14.5741 12.8125 14.0177 12.8125 13.4375C12.8125 12.8573 13.043 12.3009 13.4532 11.8907C13.8634 11.4805 14.4198 11.25 15 11.25Z" fill="#C29FFA"/>
<path d="M19.0625 11.875V15C19.062 15.1656 18.996 15.3243 18.8789 15.4414C18.7618 15.5585 18.6031 15.6245 18.4375 15.625H15C14.4556 15.6256 13.9307 15.4228 13.5283 15.0562C13.1258 14.6896 12.875 14.1858 12.825 13.6437C12.9131 13.7907 13.0191 13.9261 13.1406 14.0469C13.3433 14.2506 13.5844 14.4121 13.8499 14.522C14.1154 14.632 14.4001 14.6882 14.6875 14.6875H16.25C16.4142 14.6875 16.5767 14.6552 16.7284 14.5924C16.8801 14.5296 17.0179 14.4376 17.134 14.3215C17.2501 14.2054 17.3421 14.0676 17.4049 13.9159C17.4677 13.7642 17.5 13.6017 17.5 13.4375V11.25H18.4375C18.6031 11.2505 18.7618 11.3165 18.8789 11.4336C18.996 11.5507 19.062 11.7094 19.0625 11.875Z" fill="#8441F5"/>
<path d="M15 14.0625C15.3452 14.0625 15.625 13.7827 15.625 13.4375C15.625 13.0923 15.3452 12.8125 15 12.8125C14.6548 12.8125 14.375 13.0923 14.375 13.4375C14.375 13.7827 14.6548 14.0625 15 14.0625Z" fill="#EEEEEE"/>
<path d="M15.625 13.4375C15.6252 13.5473 15.5964 13.6551 15.5415 13.7502C15.4867 13.8453 15.4077 13.9242 15.3127 13.979C15.2176 14.0339 15.1097 14.0627 15 14.0625C14.8902 14.0623 14.7824 14.0332 14.6875 13.9781C14.7825 13.9234 14.8614 13.8446 14.9163 13.7497C14.9711 13.6548 15 13.5471 15 13.4375C15 13.3279 14.9711 13.2202 14.9163 13.1253C14.8614 13.0304 14.7825 12.9516 14.6875 12.8969C14.7824 12.8418 14.8902 12.8127 15 12.8125C15.1097 12.8123 15.2176 12.8411 15.3127 12.896C15.4077 12.9508 15.4867 13.0297 15.5415 13.1248C15.5964 13.2199 15.6252 13.3277 15.625 13.4375Z" fill="#E0E0E0"/>
</g>
<defs>
<clipPath id="clip0_10570_11901">
<rect width="20" height="20" fill="white"/>
</clipPath>
</defs>
</svg>
