<svg width="22" height="25" viewBox="0 0 22 25" fill="none" xmlns="http://www.w3.org/2000/svg">
<path d="M16.3045 8.97398C17.9097 10.1208 19.8762 10.7956 22 10.7956V6.71082C21.5981 6.7109 21.1971 6.66901 20.8039 6.58574V9.80106C18.6802 9.80106 16.7141 9.12627 15.1085 7.97951V16.3154C15.1085 20.4854 11.7263 23.8657 7.55435 23.8657C5.99772 23.8657 4.55088 23.3953 3.349 22.5886C4.72075 23.9905 6.63377 24.8601 8.75018 24.8601C12.9223 24.8601 16.3047 21.4799 16.3047 17.3097V8.97398H16.3045ZM17.78 4.85292C16.9597 3.95716 16.4211 2.79956 16.3045 1.51978V0.994385H15.1711C15.4564 2.62098 16.4295 4.01065 17.78 4.85292ZM5.98773 19.3887C5.5294 18.788 5.28172 18.0532 5.28283 17.2978C5.28283 15.3905 6.82983 13.8441 8.73841 13.8441C9.0941 13.8441 9.44766 13.8985 9.78663 14.006V9.8299C9.3905 9.77563 8.99069 9.7526 8.59106 9.76104V13.0115C8.25183 12.904 7.8981 12.8494 7.54232 12.8497C5.63375 12.8497 4.08683 14.396 4.08683 16.3034C4.08683 17.6522 4.86008 18.8198 5.98773 19.3887Z" fill="#FF004F"/>
<path d="M15.1085 7.97942C16.7141 9.12619 18.6803 9.80097 20.8039 9.80097V6.58566C19.6185 6.33328 18.5691 5.71413 17.7801 4.85292C16.4295 4.01057 15.4564 2.6209 15.1711 0.994385H12.1938V17.3095C12.1871 19.2115 10.6427 20.7516 8.73827 20.7516C7.61599 20.7516 6.61895 20.2169 5.98751 19.3887C4.85994 18.8198 4.08669 17.6521 4.08669 16.3035C4.08669 14.3962 5.63361 12.8498 7.54219 12.8498C7.90786 12.8498 8.26031 12.9067 8.59092 13.0116V9.76113C4.4923 9.84577 1.19601 13.193 1.19601 17.3096C1.19601 19.3646 2.01687 21.2275 3.34912 22.5887C4.551 23.3953 5.99783 23.8657 7.55447 23.8657C11.7265 23.8657 15.1086 20.4853 15.1086 16.3154V7.97942H15.1085Z" fill="black"/>
<path d="M20.8039 6.58566V5.71626C19.735 5.71788 18.687 5.41867 17.7801 4.85284C18.5829 5.73136 19.6401 6.33713 20.8039 6.58566ZM15.1711 0.994389C15.1439 0.838938 15.123 0.682464 15.1085 0.525392V0H10.9977V16.3153C10.9911 18.2171 9.44682 19.7571 7.54217 19.7571C6.98299 19.7571 6.45504 19.6245 5.98749 19.3887C6.61893 20.2169 7.61597 20.7515 8.73825 20.7515C10.6426 20.7515 12.1872 19.2116 12.1938 17.3096V0.994389H15.1711ZM8.59107 9.76113V8.8356C8.24758 8.78867 7.90127 8.76512 7.55454 8.76529C3.3822 8.76521 0 12.1456 0 16.3153C0 18.9295 1.32926 21.2333 3.34918 22.5885C2.01693 21.2274 1.19608 19.3644 1.19608 17.3095C1.19608 13.193 4.49228 9.84577 8.59107 9.76113Z" fill="#00F2EA"/>
</svg>
