<svg width="20" height="20" viewBox="0 0 20 20" fill="none" xmlns="http://www.w3.org/2000/svg">
<path d="M16.8732 0.937622C16.1795 0.93795 15.6256 1.49383 15.6256 2.18762V10.7386L16.2513 10.3651L17.6508 11.2043C17.8588 11.3288 18.1232 11.1794 18.1238 10.937V2.18762C18.1238 2.16594 18.1235 2.14434 18.1215 2.12292C18.0881 1.45955 17.5452 0.937939 16.8732 0.937622ZM8.56205 5.55982C8.38977 5.55948 8.24959 5.69873 8.24893 5.8711V6.12073C8.06725 6.17663 7.90462 6.28393 7.78079 6.43201C7.6183 6.62635 7.53734 6.87544 7.55252 7.12842C7.56823 7.38033 7.67699 7.61683 7.86198 7.79065C8.05565 7.97272 8.27663 8.04804 8.44975 8.11108C8.6205 8.17326 8.75476 8.22981 8.82816 8.29785C8.89785 8.36242 8.94368 8.46597 8.94592 8.56091V8.5634C8.94828 8.65737 8.90647 8.76269 8.83973 8.83073C8.77312 8.89851 8.6674 8.94228 8.57241 8.94181C8.47745 8.94133 8.37276 8.89733 8.30689 8.8289C8.18746 8.70336 7.98863 8.69906 7.86378 8.8191C7.73905 8.93938 7.73557 9.1382 7.8567 9.26221C7.96725 9.37706 8.10138 9.46251 8.24853 9.51306V9.77674C8.24784 9.95026 8.38876 10.0911 8.56226 10.0905C8.7351 10.0901 8.87484 9.94955 8.87416 9.77674V9.521C9.0288 9.4727 9.17085 9.38696 9.28674 9.26893C9.47503 9.07713 9.57696 8.81685 9.57057 8.54688C9.56466 8.27707 9.44987 8.02236 9.25196 7.83887C9.05755 7.65864 8.83662 7.58548 8.66418 7.52271C8.49417 7.4608 8.36243 7.404 8.29004 7.33594C8.22614 7.27586 8.18078 7.18081 8.17464 7.0918V7.08932C8.16992 7.00131 8.20346 6.90055 8.26003 6.83297C8.31696 6.76489 8.4093 6.71464 8.49746 6.70419C8.58557 6.69368 8.68743 6.72271 8.75871 6.7756C8.89811 6.87862 9.09478 6.84849 9.19693 6.70846C9.29886 6.57013 9.26993 6.37543 9.13222 6.27267C9.05273 6.21371 8.96555 6.16751 8.87403 6.13473V5.8711C8.87337 5.69944 8.73364 5.56048 8.56205 5.55982ZM14.6869 14.062C13.1375 14.062 11.875 15.3244 11.875 16.8739C11.875 18.4234 13.1375 19.6858 14.6869 19.6858C16.2364 19.6858 17.4982 18.4234 17.4982 16.8739C17.4982 15.3244 16.2364 14.062 14.6869 14.062ZM15.6727 16.0023C15.6861 16.0021 15.7002 16.0026 15.7135 16.0042C15.7957 16.0126 15.8712 16.0532 15.9235 16.1171C16.0334 16.2508 16.0137 16.4484 15.8795 16.5578L14.5209 17.6717C14.4024 17.7696 14.2302 17.7668 14.115 17.665L13.4851 17.104C13.3565 16.9894 13.3451 16.7922 13.4595 16.6634C13.5744 16.535 13.7715 16.5238 13.9002 16.6383L14.3317 17.0192L15.4828 16.0732C15.5364 16.0291 15.6033 16.0042 15.6727 16.0023Z" fill="#C29FFA"/>
<path d="M3.75084 0.312012C2.71909 0.312011 1.876 1.15573 1.876 2.18747V19.3742C1.87646 19.6163 2.14029 19.766 2.34838 19.6421L3.75084 18.7999L5.15332 19.6421C5.25218 19.7013 5.37551 19.7013 5.47433 19.6421L6.87681 18.7999L8.27684 19.6421C8.37617 19.702 8.5004 19.702 8.59967 19.6421L9.99973 18.7999L11.4022 19.6421C11.5009 19.701 11.6239 19.701 11.7226 19.6421L12.2731 19.3119C12.1232 19.1635 11.9869 19.0014 11.866 18.828C11.4788 18.272 11.2502 17.5973 11.2502 16.8738C11.2502 15.8863 11.6745 14.9914 12.3494 14.3624C12.347 14.3624 12.3458 14.3624 12.3435 14.3624H4.53343C4.49386 14.3618 4.45465 14.3538 4.41804 14.3386C4.41568 14.338 4.41331 14.3375 4.41095 14.3367C4.37658 14.3219 4.34528 14.301 4.31823 14.275C4.31351 14.2711 4.30996 14.267 4.30607 14.2628C4.28067 14.2361 4.26024 14.2051 4.24559 14.1713C4.24441 14.1679 4.24323 14.1644 4.24205 14.1609C4.22764 14.1252 4.21996 14.0871 4.21949 14.0486V14.0474C4.22037 14.011 4.22776 13.9751 4.24087 13.9412C4.24323 13.9348 4.24559 13.9285 4.24795 13.9223C4.26213 13.8913 4.28138 13.8628 4.30477 13.8381C4.31067 13.8317 4.31669 13.8256 4.32307 13.8198C4.34799 13.7968 4.37646 13.778 4.40729 13.7642C4.41438 13.7615 4.42158 13.7591 4.42866 13.7569C4.46032 13.7451 4.49315 13.7385 4.52693 13.7374C4.52929 13.7369 4.53166 13.7365 4.53402 13.7362H12.344C12.3488 13.7367 12.3535 13.7372 12.3575 13.7381C12.3804 13.739 12.4031 13.7426 12.4253 13.7485C12.5617 13.7846 12.657 13.9076 12.6578 14.0487C12.6578 14.0703 12.6555 14.0917 12.6507 14.1128C13.2221 13.6892 13.9272 13.4372 14.6873 13.4372C14.793 13.4372 14.8976 13.4424 15.001 13.4519V12.4986V11.112V2.18752C15.001 1.2619 15.6785 0.488378 16.5628 0.338912C16.4614 0.321774 16.3577 0.312052 16.2515 0.312052L3.75084 0.312012ZM8.56246 4.38822C10.4571 4.38822 11.9997 5.93038 11.9997 7.82482C11.9997 9.71926 10.4571 11.262 8.56246 11.262C6.66784 11.262 5.12341 9.71926 5.12341 7.82482C5.12341 5.93038 6.66784 4.38822 8.56246 4.38822ZM4.53325 12.4863H8.59481C8.59717 12.4867 8.59953 12.4871 8.60189 12.4875C8.63484 12.4889 8.66757 12.4954 8.69827 12.507C8.70536 12.5094 8.7128 12.512 8.72024 12.5149C8.75095 12.529 8.77918 12.548 8.80387 12.5711C8.80977 12.5764 8.81627 12.5818 8.82158 12.5876C8.84509 12.6125 8.86421 12.6412 8.87839 12.6724C8.88075 12.6786 8.88311 12.6849 8.88547 12.6913C8.8987 12.725 8.9059 12.7607 8.90685 12.7969V12.7981C8.9068 12.8108 8.9059 12.8234 8.90448 12.836V12.8372V12.8384C8.90428 12.839 8.90407 12.8395 8.90387 12.8403C8.90269 12.853 8.90033 12.8657 8.89679 12.8781V12.8793C8.89325 12.8922 8.88853 12.9049 8.88392 12.9172C8.8792 12.9294 8.87329 12.9418 8.8662 12.9532C8.866 12.9536 8.86579 12.9541 8.86559 12.9544C8.85851 12.9658 8.85104 12.9774 8.84301 12.9879C8.83474 12.9989 8.82576 13.0093 8.81619 13.0191C8.80674 13.0286 8.79648 13.0377 8.78574 13.0459C8.73129 13.0883 8.66433 13.1115 8.59531 13.1118H4.53375C4.49418 13.1113 4.45497 13.1032 4.41835 13.088C4.41599 13.0875 4.41363 13.0869 4.41127 13.0862C4.3769 13.0713 4.34559 13.0504 4.31855 13.0245C4.31382 13.0206 4.31028 13.0165 4.30638 13.0123C4.28099 12.9856 4.26056 12.9546 4.24592 12.9208C4.24474 12.9173 4.24355 12.9139 4.24237 12.9104C4.22796 12.8746 4.22029 12.8366 4.21981 12.7981V12.7969C4.22075 12.76 4.22808 12.7237 4.24178 12.6895C4.24414 12.6835 4.24532 12.6776 4.24768 12.6718C4.26209 12.6402 4.2817 12.6114 4.30568 12.5863C4.3104 12.581 4.31513 12.5759 4.32092 12.571C4.34607 12.5475 4.37489 12.5284 4.40642 12.5143C4.41351 12.5113 4.42095 12.5087 4.42839 12.5064C4.45993 12.4948 4.49312 12.4884 4.52666 12.4875C4.52902 12.4871 4.53089 12.4866 4.53325 12.4863ZM4.53325 14.9867H10.4678C10.4702 14.9871 10.4725 14.9875 10.4749 14.9879C10.5084 14.9889 10.5416 14.9952 10.5732 15.0068C10.5803 15.0092 10.5879 15.0118 10.5951 15.0147C10.6266 15.0288 10.6555 15.048 10.6807 15.0715C10.6854 15.0765 10.6901 15.0815 10.6953 15.0868C10.7193 15.1118 10.7389 15.1407 10.7533 15.1722C10.7557 15.178 10.758 15.1839 10.7592 15.1899C10.7728 15.2241 10.7802 15.2605 10.7812 15.2973V15.2985C10.7811 15.3114 10.7803 15.3242 10.7788 15.337V15.3382V15.3394C10.7776 15.3516 10.7741 15.3642 10.7717 15.3761C10.7715 15.3771 10.7713 15.3781 10.7711 15.3791C10.7707 15.3803 10.7703 15.3816 10.7699 15.3828C10.7664 15.3948 10.7628 15.4066 10.7578 15.4182C10.753 15.4305 10.7471 15.4432 10.74 15.4548C10.733 15.4667 10.7253 15.4781 10.7169 15.489C10.7086 15.5 10.6997 15.5103 10.6901 15.5201C10.6511 15.5592 10.6024 15.5872 10.5491 15.6013C10.5226 15.6085 10.4954 15.6122 10.468 15.6123H4.53339C4.49382 15.6117 4.45462 15.6037 4.418 15.5885C4.41564 15.5879 4.41327 15.5874 4.41091 15.5866C4.37654 15.5718 4.34524 15.5509 4.3182 15.5249C4.31347 15.521 4.30993 15.5169 4.30603 15.5128C4.28064 15.486 4.2602 15.455 4.24556 15.4212C4.24438 15.4178 4.2432 15.4144 4.24202 15.4108C4.22761 15.3751 4.21993 15.337 4.21946 15.2985V15.2973C4.22039 15.2605 4.22772 15.2241 4.24142 15.1899C4.24378 15.184 4.24497 15.178 4.24733 15.1722C4.26174 15.1407 4.28134 15.1118 4.30532 15.0867C4.31004 15.0814 4.31477 15.0763 4.32056 15.0715C4.34571 15.048 4.37454 15.0288 4.40607 15.0147C4.41316 15.0118 4.4206 15.0092 4.42804 15.0068C4.45958 14.9952 4.49276 14.9889 4.52631 14.9879C4.52867 14.9875 4.53089 14.987 4.53325 14.9867Z" fill="#7008E7"/>
</svg>
